<svg xmlns="http://www.w3.org/2000/svg" width="512" height="88.544" viewBox="0 0 512 88.544"><defs><style>.a{fill:#fff;}.b{fill:#ff9000;}</style></defs><g transform="translate(0 0)"><path class="a" d="M1092.863,160.544v-5.164a14.839,14.839,0,0,1-5.785,4.542,19,19,0,0,1-7.028,1.2,19.289,19.289,0,0,1-6.74-1.148,13.92,13.92,0,0,1-5.116-3.155,14.35,14.35,0,0,1-2.917-4.207,24.014,24.014,0,0,1-1.673-5.116,35.734,35.734,0,0,1-.717-5.594q-.145-2.867-.144-5.642t.144-5.642a34.641,34.641,0,0,1,.717-5.546,24.184,24.184,0,0,1,1.673-5.067,14.358,14.358,0,0,1,2.917-4.207,13.989,13.989,0,0,1,5.066-3.156,18.91,18.91,0,0,1,6.694-1.148,19.784,19.784,0,0,1,6.98,1.148,14.193,14.193,0,0,1,5.738,4.3V92.463h9.753v68.081Zm-.526-30.455a16.089,16.089,0,0,0-1.387-5.116,8.335,8.335,0,0,0-3.06-3.491,11.459,11.459,0,0,0-10.565,0,8.786,8.786,0,0,0-3.06,3.491,15.229,15.229,0,0,0-1.435,5.116,57.152,57.152,0,0,0,0,12.335,15.711,15.711,0,0,0,1.435,5.164,8.709,8.709,0,0,0,3.06,3.538,11.454,11.454,0,0,0,10.565,0,8.271,8.271,0,0,0,3.06-3.538,16.608,16.608,0,0,0,1.387-5.164,56.925,56.925,0,0,0,0-12.335Z" transform="translate(-1062.743 -92.176)"/><path class="a" d="M1150.071,148.237q0,6.311,3.156,9.944t9.18,3.633a15.68,15.68,0,0,0,6.645-1.2,18.645,18.645,0,0,0,5.115-3.777l6.216,5.834a34.437,34.437,0,0,1-3.778,3.3,20.692,20.692,0,0,1-8.7,3.777,30.852,30.852,0,0,1-5.69.479,27.543,27.543,0,0,1-8.562-1.291,17.27,17.27,0,0,1-6.914-4.207,20.477,20.477,0,0,1-4.684-7.7,34.306,34.306,0,0,1-1.738-11.666q0-11.855,5.642-18.312t15.012-6.454a21.005,21.005,0,0,1,8.7,1.72,18.28,18.28,0,0,1,6.453,4.782,21.056,21.056,0,0,1,4.017,7.362,30.771,30.771,0,0,1,1.387,9.467v4.3Zm21.467-10.375a11.952,11.952,0,0,0-1-3.012,9.751,9.751,0,0,0-3.633-4.447,10.383,10.383,0,0,0-5.929-1.674A10.6,10.6,0,0,0,1155,130.4a9.638,9.638,0,0,0-3.681,4.447,10.45,10.45,0,0,0-.956,3.012q-.193,1.387-.288,3.586h21.8A29.516,29.516,0,0,0,1171.538,137.862Z" transform="translate(-1087.861 -101.287)"/><path class="a" d="M1253.4,161.528a14.235,14.235,0,0,1-4.207,4.829,18.48,18.48,0,0,1-6.407,2.917,32.34,32.34,0,0,1-8.031.956,41.579,41.579,0,0,1-11-1.387,21.44,21.44,0,0,1-9.37-5.594l6.406-6.406a14.49,14.49,0,0,0,6.645,4.065,27.715,27.715,0,0,0,7.315,1,15.957,15.957,0,0,0,7.554-1.625,5.852,5.852,0,0,0,1.577-9.036q-1.483-1.481-5.02-1.769l-7.745-.67q-6.885-.573-10.615-3.777t-3.728-9.61a13.235,13.235,0,0,1,5.355-10.948,18.548,18.548,0,0,1,5.784-2.869,24.38,24.38,0,0,1,7.124-1,38.366,38.366,0,0,1,10.041,1.243,19.454,19.454,0,0,1,7.936,4.207l-6.119,6.215a13.766,13.766,0,0,0-5.4-2.725,25.872,25.872,0,0,0-6.551-.813q-4.4,0-6.6,1.722a5.438,5.438,0,0,0-2.2,4.494,5.184,5.184,0,0,0,1.386,3.682q1.385,1.482,5.307,1.864l7.65.669q6.885.574,10.661,3.872t3.778,9.8A14.022,14.022,0,0,1,1253.4,161.528Z" transform="translate(-1111.843 -101.287)"/><path class="a" d="M1290.982,102.365V92.039h10.327v10.326Zm.286,58.041v-48.48h9.754v48.48Z" transform="translate(-1136.644 -92.039)"/><path class="a" d="M1362.869,177.592a18.329,18.329,0,0,1-10.615,10.71,23.3,23.3,0,0,1-8.7,1.529,27.23,27.23,0,0,1-9.418-1.434,23.547,23.547,0,0,1-7.7-4.973l6.216-6.215a16.984,16.984,0,0,0,4.589,3.251,14.318,14.318,0,0,0,5.929,1.052,12.3,12.3,0,0,0,5.211-1,9.776,9.776,0,0,0,3.538-2.716,10.9,10.9,0,0,0,2.007-3.907,17.083,17.083,0,0,0,.621-4.671v-6.2a14.629,14.629,0,0,1-5.737,4.305,18.7,18.7,0,0,1-6.789,1.181,18.127,18.127,0,0,1-6.6-1.148,14.143,14.143,0,0,1-4.972-3.155,16.036,16.036,0,0,1-4.494-8.511,65.919,65.919,0,0,1,0-22.375,16.047,16.047,0,0,1,4.494-8.509q4.208-4.206,11.665-4.207a18.709,18.709,0,0,1,6.934,1.195,14.883,14.883,0,0,1,5.785,4.542v-5.164h9.465v48.193A22.746,22.746,0,0,1,1362.869,177.592Zm-8.607-38.649a14.57,14.57,0,0,0-1.339-4.892,8.567,8.567,0,0,0-3.011-3.453,9.324,9.324,0,0,0-5.211-1.295,9.516,9.516,0,0,0-5.307,1.295,8.2,8.2,0,0,0-2.964,3.453,16.162,16.162,0,0,0-1.339,4.892,47.349,47.349,0,0,0,0,11.224,16.172,16.172,0,0,0,1.339,4.893,8.2,8.2,0,0,0,2.964,3.453,9.515,9.515,0,0,0,5.307,1.294,9.323,9.323,0,0,0,5.211-1.294,8.562,8.562,0,0,0,3.011-3.453,14.578,14.578,0,0,0,1.339-4.893,55.035,55.035,0,0,0,0-11.224Z" transform="translate(-1147.659 -101.287)"/><path class="a" d="M1434.741,169.655V140.108q0-5.64-2.822-8.223a9.893,9.893,0,0,0-6.932-2.582,10.3,10.3,0,0,0-7.077,2.63q-2.964,2.63-2.963,8.175v29.547h-9.753v-48.48h9.562v4.877a15.41,15.41,0,0,1,5.88-4.112,19.007,19.007,0,0,1,7.028-1.338,18.8,18.8,0,0,1,6.741,1.147,15.386,15.386,0,0,1,5.212,3.251,14.935,14.935,0,0,1,3.824,6.167,25.265,25.265,0,0,1,1.053,7.506v30.981Z" transform="translate(-1173.625 -101.287)"/><path class="a" d="M1524.4,141.9a35.923,35.923,0,0,1-.716,5.594,24.089,24.089,0,0,1-1.673,5.116,14.449,14.449,0,0,1-2.916,4.207,13.937,13.937,0,0,1-5.116,3.155,19.317,19.317,0,0,1-6.742,1.148,19,19,0,0,1-7.028-1.2,14.816,14.816,0,0,1-5.784-4.542v5.164h-9.563V92.463h9.755v24.478a14.168,14.168,0,0,1,5.736-4.3,19.772,19.772,0,0,1,6.98-1.148,18.912,18.912,0,0,1,6.693,1.148,14,14,0,0,1,5.069,3.156A14.457,14.457,0,0,1,1522.01,120a24.262,24.262,0,0,1,1.673,5.067,34.822,34.822,0,0,1,.716,5.546q.145,2.868.144,5.642T1524.4,141.9Zm-9.944-11.809a16.092,16.092,0,0,0-1.387-5.116,8.341,8.341,0,0,0-3.059-3.491,11.461,11.461,0,0,0-10.566,0,8.792,8.792,0,0,0-3.06,3.491,15.229,15.229,0,0,0-1.434,5.116,57.007,57.007,0,0,0,0,12.335,15.711,15.711,0,0,0,1.434,5.164,8.715,8.715,0,0,0,3.06,3.538,11.456,11.456,0,0,0,10.566,0,8.277,8.277,0,0,0,3.059-3.538,16.612,16.612,0,0,0,1.387-5.164,56.987,56.987,0,0,0,0-12.335Z" transform="translate(-1199.419 -92.176)"/><path class="a" d="M1575.868,160.544a14.92,14.92,0,0,1-5.976-1.1,11.734,11.734,0,0,1-4.159-2.918,11.4,11.4,0,0,1-2.392-4.255,16.968,16.968,0,0,1-.764-5.116V92.463h9.752v54.12a6.62,6.62,0,0,0,1.148,4.207q1.148,1.435,4.112,1.436h4.3v8.318Z" transform="translate(-1224.583 -92.176)"/><path class="a" d="M1635.329,169.93v-4.876a15.377,15.377,0,0,1-5.881,4.111,19.7,19.7,0,0,1-13.769.191,15.328,15.328,0,0,1-5.211-3.25,14.914,14.914,0,0,1-3.825-6.168,25.25,25.25,0,0,1-1.051-7.507V121.45h9.752V151q0,5.643,2.821,8.223a9.886,9.886,0,0,0,6.933,2.582,12.143,12.143,0,0,0,3.873-.621,8.042,8.042,0,0,0,3.2-1.961,9.831,9.831,0,0,0,2.152-3.394,13.118,13.118,0,0,0,.812-4.829V121.45h9.754v48.48Z" transform="translate(-1238.51 -101.562)"/><path class="a" d="M1692.352,148.237q0,6.311,3.156,9.944t9.18,3.633a15.68,15.68,0,0,0,6.645-1.2,18.64,18.64,0,0,0,5.116-3.777l6.215,5.834a34.4,34.4,0,0,1-3.777,3.3,20.708,20.708,0,0,1-8.7,3.777,30.851,30.851,0,0,1-5.689.479,27.548,27.548,0,0,1-8.562-1.291,17.284,17.284,0,0,1-6.915-4.207,20.491,20.491,0,0,1-4.683-7.7,34.3,34.3,0,0,1-1.737-11.666q0-11.855,5.641-18.312t15.011-6.454a21.006,21.006,0,0,1,8.7,1.72,18.3,18.3,0,0,1,6.454,4.782,21.059,21.059,0,0,1,4.016,7.362,30.778,30.778,0,0,1,1.387,9.467v4.3Zm21.467-10.375a12,12,0,0,0-1-3.012,9.746,9.746,0,0,0-3.634-4.447,10.382,10.382,0,0,0-5.93-1.674,10.607,10.607,0,0,0-5.976,1.674,9.634,9.634,0,0,0-3.68,4.447,10.438,10.438,0,0,0-.956,3.012q-.194,1.387-.288,3.586h21.8A29.456,29.456,0,0,0,1713.819,137.862Z" transform="translate(-1263.445 -101.287)"/></g><path class="b" d="M1800.123,108.561H1783.6V92.039h-8.261v16.523h-16.522v8.261h16.522v16.523h8.261V116.823h16.522Z" transform="translate(-1288.123 -92.039)"/></svg>