<svg id="visual" viewBox="0 0 900 600" width="900" height="600" xmlns="http://www.w3.org/2000/svg" xmlns:xlink="http://www.w3.org/1999/xlink" version="1.1"><rect x="0" y="0" width="900" height="600" fill="#001220"></rect><defs><linearGradient id="grad1_0" x1="33.3%" y1="0%" x2="100%" y2="100%"><stop offset="20%" stop-color="#001220" stop-opacity="1"></stop><stop offset="80%" stop-color="#001220" stop-opacity="1"></stop></linearGradient></defs><defs><linearGradient id="grad2_0" x1="0%" y1="0%" x2="66.7%" y2="100%"><stop offset="20%" stop-color="#001220" stop-opacity="1"></stop><stop offset="80%" stop-color="#001220" stop-opacity="1"></stop></linearGradient></defs><g transform="translate(900, 0)"><path d="M0 162.2C-29.8 158.8 -59.6 155.4 -81.1 140.5C-102.7 125.6 -116 99.3 -128.2 74C-140.3 48.7 -151.3 24.3 -162.2 0L0 0Z" fill="#FBAE3C"></path></g><g transform="translate(0, 600)"><path d="M0 -162.2C30.6 -159.3 61.2 -156.3 81.1 -140.5C101.1 -124.7 110.4 -96.1 122.1 -70.5C133.9 -44.9 148.1 -22.5 162.2 0L0 0Z" fill="#FBAE3C"></path></g></svg>