<svg viewBox="0 0 100 100" xml:space="preserve" xmlns="http://www.w3.org/2000/svg" enable-background="new 0 0 100 100"><path d="M82.7 20.7a87.2 87.2 0 0 0-11.2-13C66.5 3 61.6 1 55 4c-5.6 2.5-10.6 6.9-15.6 10.6l-17 12.3c-4.7 3.4-9.5 6.5-11.4 12.4-.4 1.4-.7 2.8-.7 4.3-.3.1-.5.2-.8.3l-.3.1H9c-2.1.7-4.3 2.4-4.7 4.7v.2c-.1.6-.1 1.2-.1 1.8-1 2.5-.4 5.3 1.5 7.2.2.1.3.3.5.4.1 2 .7 4 1.7 5.8 1.9 3.3 5 5.5 7.8 8 3.1 2.7 6 5.5 8.9 8.4 5 5 10.7 14.5 18.7 14.5 4.2 0 7.6-2.7 10.9-5l10.6-7.4c6.8-4.7 13.7-9.3 20.3-14.3 3.3-2.3 5.9-5.4 7.7-9 2-1.1 3.2-3.3 3.1-5.6-.1-11.9-6.4-23.6-13.2-33z" fill="#5ce0d8" class="fill-efe7d2"></path><path d="M15.9 53.1c.1 0 .1 0 0 0-.6-.8-1.2-1.5-1.8-2.2l1.6 2.3c.1 0 .2 0 .2-.1zM19.7 57.3l-1.8-2.1c-.1.2-.3.3-.5.4l1.5 2.1c.2-.1.5-.3.8-.4zM26 65.3c-.5-.7-1.1-1.5-1.6-2.2-.1.2-.2.4-.4.5l-.6.5 1.4 2c.4-.3.8-.6 1.2-.8zM34.2 77.6c0-.1.1-.1 0 0-.3-.7-.8-1.4-1.2-2.1-.3.3-.6.6-.9.8l1.4 1.9c.2-.2.4-.5.7-.6zM31.1 73.3c.1-.1.3-.2.4-.3-.3-.5-.7-1-1-1.5-.1.1-.1.1-.2.1-.3.2-.6.5-.9.7l1.1 1.5c.1-.1.3-.3.6-.5zM22 61.4c.2-.2.4-.3.7-.3-.4-.5-.8-1.1-1.3-1.6l-.3.3-.6.3 1.1 1.6.4-.3zM28.6 69.3c.1 0 .1-.1.2-.1-.4-.5-.7-1-1.1-1.6-.4.3-.8.5-1.2.8l1.1 1.6c.3-.3.7-.5 1-.7zM38.1 83.9c-.8-1.3-1.5-2.7-2.3-3.9-.2.2-.5.4-.7.6l5 7c-.7-1.2-1.3-2.4-2-3.7z" fill="none"></path><path d="M96 49.9c-1.5-3.3-8-17-21.6-33.4-2.1-2.6-5-5.9-8.5-9.6-2.3-2.4-5.9-2.8-8.6-1.1l.7 1.3-.8-1.2c-9.6 5.9-19.5 12.5-29.6 19.9-5.6 4-10.9 8-16 12-2.9 2.3-3.4 6.5-1.2 9.4L5 51.7c-2.5 2.1-2.8 5.8-.8 8.3 10.1 12.2 21.3 23.5 33.4 33.8 1 .9 2.1 1.6 3.2 2.3 1.2.7 2.6 1.1 4 1.2h.1c.1.1.2.1.3.2.4.1.8.1 1.2-.1 14.4-8 27.9-17.6 40.1-28.6 2.5-2.2 4.8-4.4 7-6.6 2.1-2 3.2-4.8 3.2-7.7.3-1.6 0-3.1-.7-4.6zM58.8 8.3c1.6-1 3.7-.7 5 .6 3.5 3.7 6.3 6.9 8.4 9.4C85.5 34.4 91.9 47.9 93.4 51v.1c.5 1 .7 2.1.7 3.2 0 2.1-.9 4.1-2.4 5.6-2.2 2.2-4.5 4.4-6.9 6.5C73.1 77.1 60.3 86.3 46.5 94c-1.8-3.8-3.7-7.6-5.9-11.5C33.1 69.1 23.8 56.7 13 45.6c-1.5-1.5-1.4-3.9.1-5.3l.3-.3c5.1-4 10.4-7.9 15.9-11.9 10.1-7.3 19.9-13.9 29.5-19.8zM5.9 56.2c0-.9.4-1.7 1.1-2.3l5.5-4.6c.5.6 1.1 1.1 1.6 1.7.6.7 1.3 1.4 1.9 2.1h-.1c-.1 0-.1.1-.2.1-1.6.9-3.1 2.2-4.3 3.6-.5.6-.4 1.5.2 2 .6.5 1.5.4 2-.2 1-1.2 2.3-2.3 3.7-3.1.2-.1.3-.3.5-.4l1.8 2.1c-.3.1-.5.3-.8.5-1.5.9-3 2.1-4.3 3.3-.6.5-.6 1.5-.1 2 .5.6 1.5.6 2 .1l.1-.1c1.2-1.2 2.5-2.2 3.9-3l.6-.3.3-.3c.4.5.8 1.1 1.3 1.6-.3 0-.5.2-.7.3l-.3.3c-1 .9-2.1 1.8-3.1 2.8-.6.5-.7 1.4-.1 2 .5.6 1.4.7 2 .1l2.9-2.6.6-.5c.2-.1.3-.3.4-.5.5.7 1.1 1.4 1.6 2.2-.4.3-.8.5-1.1.8-1 .8-2 1.6-2.8 2.6-.5.6-.5 1.5.1 2s1.5.5 2-.1c.7-.8 1.5-1.5 2.3-2.1.4-.3.8-.6 1.2-.8.4.5.7 1 1.1 1.6-.1 0-.1.1-.2.1-.3.2-.7.5-1 .7-.9.7-1.7 1.5-2.4 2.4-.5.6-.4 1.5.2 2s1.5.4 2-.2c.6-.7 1.2-1.3 1.9-1.8.3-.2.6-.5.9-.7.1 0 .1-.1.2-.1.3.5.7 1 1 1.5-.1.1-.3.1-.4.3-.2.2-.4.4-.7.6-.6.5-1.3 1.1-1.9 1.5-.7.5-.8 1.4-.4 2 .5.7 1.4.8 2 .4.7-.5 1.3-1 2-1.5.3-.3.6-.5.9-.8.4.7.9 1.4 1.3 2.1H34c-1 .7-1.8 1.5-2.3 2.6-.4.7-.1 1.6.6 2 .7.4 1.6.1 2-.6.2-.3.4-.6.7-.9.2-.2.4-.4.7-.6.8 1.3 1.5 2.6 2.3 3.9.7 1.2 1.3 2.4 2 3.6 1.1 2.2 2.2 4.3 3.2 6.4-.3-.1-.6-.3-.9-.4-1-.6-1.9-1.2-2.7-2-12-10.1-23-21.3-33-33.4-.4-.6-.7-1.3-.7-2z" fill="#001220" class="fill-000000"></path><path d="M19.5 45.1c.5.6 1.5.6 2 .1 4.9-4.5 10.3-8.4 16.1-11.7.7-.4 1-1.2.6-1.9s-1.2-1-1.9-.6c0 0-.1 0-.1.1-6 3.4-11.5 7.5-16.6 12.1-.6.4-.6 1.3-.1 1.9zM22.5 49.9c.5.6 1.4.7 2 .2 5.1-4.4 10.4-8.5 15.8-12.4.7-.5.8-1.4.3-2-.5-.7-1.4-.8-2-.3-5.5 4-10.9 8.2-16 12.6-.5.4-.6 1.3-.1 1.9zM45.5 41.5c.6-.5.8-1.4.3-2-.5-.6-1.4-.8-2-.3L26.4 51.9c-.6.5-.8 1.4-.3 2 .5.6 1.4.8 2 .3 5.8-4.2 11.6-8.5 17.4-12.7zM48.8 46.2c.7-.4.9-1.3.5-2s-1.3-.9-2-.5c-6.3 3.8-12.2 8.1-17.7 12.9-.6.5-.7 1.4-.2 2 .5.6 1.4.7 2 .2 5.4-4.7 11.2-8.9 17.4-12.6zM52.3 50.3c.7-.4.9-1.3.5-2s-1.3-.9-2-.5c-6.1 3.7-11.8 7.9-17.1 12.7-.6.5-.6 1.5-.1 2 .5.6 1.4.6 2 .1 5.2-4.5 10.7-8.7 16.7-12.3zM39.4 69.4c.5.7 1.4.8 2 .4C54.1 61 66.7 51.9 79.1 42.7c.6-.5.8-1.4.3-2-.5-.6-1.4-.8-2-.3-12.4 9.1-25 18.1-37.6 26.9-.7.5-.9 1.4-.4 2.1zM46.2 76.5c3.6-2.6 7.2-5 10.9-7.4.7-.4.9-1.3.5-2s-1.3-.9-2-.5c-3.7 2.4-7.4 4.9-11 7.5-.6.5-.7 1.4-.2 2 .3.6 1.2.8 1.8.4zM48.3 81.2c3.7-2.9 7.6-5.4 11.8-7.6.7-.4 1-1.2.6-2s-1.2-1-2-.6c-4.3 2.2-8.4 4.9-12.2 7.9-.6.5-.7 1.4-.2 2 .5.7 1.4.8 2 .3zM60.5 76.1c-4.2 2.3-8.3 5.1-12 8.2-.6.5-.7 1.4-.2 2 .5.6 1.4.7 2 .2 3.6-3 7.5-5.6 11.6-7.8.7-.4 1-1.3.6-2s-1.3-1-2-.6zM71.1 56.7c-.4-.7-1.2-1-2-.6-3.2 1.6-6.1 3.6-8.9 5.9-.6.5-.7 1.4-.2 2 .5.6 1.4.7 2 .2l.1-.1c2.6-2.2 5.4-4 8.4-5.6.7-.2 1-1.1.6-1.8zM73.3 63.3c.7-.4 1-1.2.7-1.9-.3-.7-1.2-1-1.9-.7-3.4 1.6-6.6 3.8-9.3 6.5-.6.6-.6 1.5 0 2.1.6.6 1.5.6 2.1 0 2.4-2.5 5.3-4.5 8.4-6zM74.3 65.2c-3.1 2-6 4.3-8.6 6.8-.6.5-.6 1.5-.1 2 .5.6 1.5.6 2 .1l.1-.1c2.5-2.4 5.3-4.6 8.2-6.5.7-.4.9-1.3.5-2s-1.4-.8-2.1-.3zM74.2 54.2c.5.6 1.4.8 2 .3l6.9-5.2c.6-.5.8-1.4.3-2-.5-.6-1.4-.8-2-.3-2.3 1.7-4.6 3.5-6.9 5.2-.7.5-.8 1.4-.3 2zM76.4 59.2c.5.6 1.5.6 2 .1 2.3-2.1 4.8-4.1 7.5-5.7.7-.4.9-1.3.5-2s-1.3-.9-2-.5c-2.8 1.8-5.5 3.8-8 6-.5.6-.5 1.5 0 2.1zM78.9 63.5c.5.6 1.4.7 2 .2 2.4-2.1 4.9-4 7.6-5.7.7-.4.9-1.3.4-2-.4-.7-1.3-.9-2-.4-2.8 1.8-5.4 3.8-7.9 5.9-.6.4-.7 1.4-.1 2zM61.1 15.6zM57.3 24.4zM42.3 29.5c4.9 5.3 9 11.3 12.1 17.9.3.7 1.2 1 1.9.7 0 0 .1 0 .1-.1C62.8 44 69 39.9 75 35.4c.7-.5.8-1.4.4-2-.5-.7-1.4-.8-2-.4h-.1c-5.1 3.8-10.4 7.4-15.9 10.9-.2-4.3-.4-8.5-.6-12.8 2.3.5 4.6.9 6.9 1.1.8.1 1.5-.5 1.6-1.3v-.3c-.5-3.5-1.2-7-2.1-10.4l1.7 1.2c.7.5 1.6.3 2-.3.5-.6.3-1.5-.3-2l-3.9-2.8c-.2-.1-.4-.3-.6-.4-.3-.2-.7-.3-1-.3H61c-.4 0-.8.1-1.2.3-.4.3-.7.6-1 1-.2.3-.3.6-.4 1l-1.6 4.6c-.1.2-.1.4-.1.6 0 .2 0 .4.1.6.1.3.3.5.5.7.5.4 1.1.4 1.6.1.2-.1.4-.3.6-.5.2-.3.3-.8.2-1.2l.6-1.8c.7 2.7 1.2 5.4 1.7 8.2-2.2-.3-4.3-.7-6.4-1.3-.8-.2-1.6.2-1.8 1 0 .1-.1.3-.1.5.2 3.9.3 7.7.5 11.6-2.8-4.8-6.1-9.4-9.9-13.4-.5-.6-1.5-.6-2-.1-.5.4-.6 1.4 0 2 0-.1 0 0 0 0z" fill="#001220" class="fill-000000"></path></svg>