<svg width="256" height="361" viewBox="0 0 256 361" fill="none" xmlns="http://www.w3.org/2000/svg">
<path fill-rule="evenodd" clip-rule="evenodd" d="M170.018 87.0365C172.312 89.884 173.481 93.7263 175.821 101.411L226.925 269.289C208.031 259.487 187.489 252.418 165.827 248.604L132.553 136.161C132.009 134.321 130.319 133.059 128.4 133.059C126.477 133.059 124.784 134.327 124.244 136.174L91.3727 248.547C69.6097 252.344 48.9756 259.426 30 269.263L81.3549 101.372C83.7015 93.7006 84.8749 89.8649 87.1686 87.0226C89.1937 84.5134 91.8277 82.5647 94.8194 81.3621C98.2084 80 102.219 80 110.242 80H146.922C154.955 80 158.971 80 162.363 81.365C165.358 82.5775 167.993 84.5227 170.018 87.0365Z" fill="black"/>
<path fill-rule="evenodd" clip-rule="evenodd" d="M176.133 277.278C167.709 284.482 150.893 289.395 131.524 289.395C107.751 289.395 87.826 281.994 82.5387 272.041C80.6486 277.745 80.2247 284.274 80.2247 288.444C80.2247 288.444 78.9794 308.925 93.2231 323.167C93.2231 315.771 99.2189 309.777 106.615 309.777C119.292 309.777 119.277 320.836 119.266 329.808C119.266 330.077 119.265 330.344 119.265 330.608C119.265 344.228 127.589 355.903 139.427 360.826C137.659 357.189 136.667 353.104 136.667 348.79C136.667 335.8 144.293 330.962 153.156 325.341C160.208 320.869 168.043 315.901 173.442 305.932C176.26 300.731 177.859 294.775 177.859 288.444C177.859 284.551 177.255 280.8 176.133 277.278Z" fill="#FF5D01"/>
<path fill-rule="evenodd" clip-rule="evenodd" d="M176.133 277.278C167.709 284.482 150.893 289.395 131.524 289.395C107.751 289.395 87.826 281.994 82.5387 272.041C80.6486 277.745 80.2247 284.274 80.2247 288.444C80.2247 288.444 78.9794 308.925 93.2231 323.167C93.2231 315.771 99.2189 309.777 106.615 309.777C119.292 309.777 119.277 320.836 119.266 329.808C119.266 330.077 119.265 330.344 119.265 330.608C119.265 344.228 127.589 355.903 139.427 360.826C137.659 357.189 136.667 353.104 136.667 348.79C136.667 335.8 144.293 330.962 153.156 325.341C160.208 320.869 168.043 315.901 173.442 305.932C176.26 300.731 177.859 294.775 177.859 288.444C177.859 284.551 177.255 280.8 176.133 277.278Z" fill="url(#paint0_linear_36_19)"/>
<defs>
<linearGradient id="paint0_linear_36_19" x1="214.065" y1="235.642" x2="171.233" y2="325.309" gradientUnits="userSpaceOnUse">
<stop stop-color="#FF1639"/>
<stop offset="1" stop-color="#FF1639" stop-opacity="0"/>
</linearGradient>
</defs>
</svg>
