<svg style="opacity: 0.2" id="visual" viewBox="0 0 300 300" width="300" height="300" xmlns="http://www.w3.org/2000/svg" xmlns:xlink="http://www.w3.org/1999/xlink" version="1.1"><g transform="translate(147.79878421453486 138.36307986819932)"><path d="M69.1 -101.9C96.1 -104 129.3 -98.9 126.6 -80.7C123.9 -62.5 85.4 -31.3 77.1 -4.8C68.8 21.7 90.7 43.3 94.5 63.4C98.2 83.5 83.9 101.9 65.1 114.1C46.3 126.3 23.2 132.1 7.7 118.8C-7.8 105.6 -15.7 73.1 -35.7 61.7C-55.8 50.3 -88.1 59.9 -105.5 53.1C-122.9 46.3 -125.5 23.2 -119.3 3.6C-113 -16 -98.1 -32 -88.3 -52.1C-78.6 -72.1 -74 -96.3 -60.2 -101.8C-46.3 -107.3 -23.2 -94.1 -1.1 -92.2C21 -90.4 42 -99.7 69.1 -101.9" fill="#5CE0D8"></path></g></svg>