<svg style="opacity: 0.2" id="visual" viewBox="0 0 300 300" width="300" height="300" xmlns="http://www.w3.org/2000/svg" xmlns:xlink="http://www.w3.org/1999/xlink" version="1.1"><g transform="translate(179.79829778585383 181.2194174118487)"><path d="M43.9 -82.7C62.8 -65.1 88.1 -65.3 96.7 -54.5C105.3 -43.7 97.1 -21.8 88.1 -5.3C79 11.3 68.9 22.7 58 29.4C47.1 36.2 35.3 38.4 25.4 43.2C15.6 48.1 7.8 55.5 -6.9 67.5C-21.7 79.5 -43.3 96.1 -61.8 96.2C-80.3 96.4 -95.6 80.2 -116 61.4C-136.4 42.7 -162 21.3 -159.8 1.3C-157.6 -18.8 -127.7 -37.7 -111.2 -63.2C-94.7 -88.8 -91.6 -121 -75.3 -140.1C-59 -159.2 -29.5 -165.1 -8.5 -150.4C12.5 -135.7 25 -100.3 43.9 -82.7" fill="#1A2238"></path></g></svg>