<svg style="opacity: 0.2" id="visual" viewBox="0 0 300 300" width="300" height="300" xmlns="http://www.w3.org/2000/svg" xmlns:xlink="http://www.w3.org/1999/xlink" version="1.1"><g transform="translate(178.50523252909383 182.34862096219825)"><path d="M63.2 -126.8C74.8 -102.8 72 -71.4 75.4 -49C78.9 -26.7 88.4 -13.3 89.3 0.5C90.2 14.3 82.3 28.7 76.7 47.1C71 65.6 67.5 88.2 55.1 93.2C42.7 98.2 21.3 85.6 4.2 78.4C-13 71.2 -26 69.4 -32.8 61.1C-39.5 52.8 -40.1 38.1 -64.8 26.9C-89.6 15.6 -138.5 7.8 -145.5 -4C-152.4 -15.8 -117.3 -31.7 -91.6 -41.2C-65.8 -50.7 -49.4 -53.9 -35.7 -76.7C-22 -99.4 -11 -141.7 7.4 -154.6C25.8 -167.4 51.7 -150.8 63.2 -126.8" fill="#1A2238"></path></g></svg>