<svg style="opacity: 0.2" id="visual" viewBox="0 0 300 300" width="300" height="300" xmlns="http://www.w3.org/2000/svg" xmlns:xlink="http://www.w3.org/1999/xlink" version="1.1"><g transform="translate(162.2992113292395 170.82772969780598)"><path d="M31.8 -53C47.2 -46.1 69.9 -49.8 84.2 -42.7C98.4 -35.7 104.2 -17.8 102.2 -1.2C100.2 15.5 90.4 31 81.6 47.6C72.9 64.2 65.2 81.9 51.8 87.1C38.3 92.4 19.2 85.2 5.7 75.4C-7.8 65.5 -15.6 53.1 -42.7 55.7C-69.8 58.3 -116.1 76 -125.3 69.3C-134.6 62.5 -106.8 31.3 -99.2 4.4C-91.6 -22.5 -104.3 -45 -105.9 -70.7C-107.6 -96.4 -98.3 -125.3 -78.8 -129.9C-59.3 -134.4 -29.7 -114.7 -10.8 -96.1C8.2 -77.5 16.3 -60 31.8 -53" fill="#1A2238"></path></g></svg>