<svg viewBox="0 0 128 128" xml:space="preserve" xmlns="http://www.w3.org/2000/svg" xmlns:xlink="http://www.w3.org/1999/xlink"><circle cx="64" cy="64" fill="#5ce0d8" r="64" class="fill-f54f33"></circle><defs><circle cx="64" cy="64" id="a" r="64"></circle></defs><clipPath id="b"><use overflow="visible" xlink:href="#a"></use></clipPath><path clip-path="url(#b)" fill="#22b4ab" d="M20.161 96.119 52.036 128H128V52.536l-19.885-19.914z" class="fill-dd2c24"></path><path d="M104.944 96.947H23.056a4 4 0 0 1-4-4V35.053a4 4 0 0 1 4-4h81.888a4 4 0 0 1 4 4v57.894a4 4 0 0 1-4 4z" fill="#FFFFFF" class="fill-ffffff"></path><path d="M108.944 42.054v-7.001a4 4 0 0 0-4-4H23.056a4 4 0 0 0-4 4v7.001h89.888z" fill="#e1e3e9" class="fill-e1e3e9"></path><circle cx="25" cy="36.553" fill="#f24b45" r="3" class="fill-f24b45"></circle><circle cx="34" cy="36.553" fill="#ffb202" r="3" class="fill-ffb202"></circle><circle cx="43.001" cy="36.553" fill="#5ce0d8" r="3" class="fill-4cbb41"></circle><defs><path d="M104.944 96.947H23.056a4 4 0 0 1-4-4V35.053a4 4 0 0 1 4-4h81.888a4 4 0 0 1 4 4v57.894a4 4 0 0 1-4 4z" id="c"></path></defs><clipPath id="d"><use overflow="visible" xlink:href="#c"></use></clipPath><path clip-path="url(#d)" fill="#e1e3e9" opacity=".8" d="M30.866 70.855 57.438 97.5H110V79.563l-12.866-12.9-12.665-2.944-12.674-12.663-7.419 16.132L53.475 56.3 31.937 68.83z" class="fill-e1e3e9"></path><g fill="#001220" class="fill-53899f"><path d="M30.866 66.804 53.475 56.3v4.993l-17.099 7.49v.094l17.099 7.489v4.993L30.866 70.855v-4.051zM56.958 85.206l10.08-34.15h4.758l-10.081 34.15h-4.757zM97.134 70.997 74.525 81.359v-4.993L92 68.877v-.094l-17.476-7.49V56.3l22.609 10.363v4.334z"></path></g></svg>