<svg viewBox="0 0 48 48" xml:space="preserve" xmlns="http://www.w3.org/2000/svg" enable-background="new 0 0 48 48"><path d="m20.46 25.367-.119 1.366-5.319 1.41c-2.884.765-5.158 2.595-6.136 4.94L7.46 36.498s15.853 5.932 33.08.027l-1.426-3.416c-.978-2.345-3.252-4.175-6.136-4.94l-5.32-1.41-.107-1.323" fill="#001220" class="fill-f4f4f4"></path><path d="M18.338 22.238s-.189 3.696-2 5.498l4.003-1.003.218-1.287s-1.77-1.887-2.22-3.208zM29.6 22.238s.188 3.696 2 5.498l-4.004-1.003-.218-1.287s1.771-1.887 2.221-3.208z" fill="#001220" class="fill-464747"></path><path d="M27.659 26.89c0 3.85-7.356 3.812-7.356-.032v-1.596h7.356v1.629z" fill="#22b4ab" class="fill-ddbea8"></path><path d="M29.816 21.58c.847.15 1.734-.553 1.981-1.571.248-1.018-.218-2.313-1.065-2.463l.093-3.944c0-6.327-13.7-6.327-13.7 0l.104 3.903c-.79.15-1.243 1.486-1.012 2.504.23 1.018 1.057 1.721 1.847 1.57" fill="#001220" class="fill-464747"></path><path d="M18.74 19.087c-.033-.034-1.511-1.662-1.511-1.662s-1.067.485-1.072 1.874c-.005 1.39.507 2.09 1.907 2.28 0 0 .715 3.094 3.133 4.309s5.076 1.39 6.914-1.153c1.838-2.544 1.666-3.135 1.666-3.135s1.308.306 1.887-1.2-.003-2.183-.81-2.975l-1.855 1.584V15.74a2.484 2.484 0 0 0-2.484-2.484h-5.256a2.484 2.484 0 0 0-2.484 2.458l-.036 3.372z" fill="#22b4ab" class="fill-f9d9c0"></path><path d="m20.46 25.367-.119 1.366-5.319 1.41c-2.884.765-5.158 2.595-6.136 4.94L7.46 36.498s15.853 5.932 33.08.027l-1.426-3.416c-.978-2.345-3.252-4.175-6.136-4.94l-5.32-1.41-.107-1.323M29.816 21.58c.847.15 1.734-.553 1.981-1.571.248-1.018-.218-2.313-1.065-2.463l.093-3.944c0-6.327-13.7-6.327-13.7 0l.104 3.903c-.79.15-1.243 1.486-1.012 2.504.23 1.018 1.057 1.721 1.847 1.57" fill="none" stroke="#001220" stroke-width=".8" stroke-linecap="round" stroke-linejoin="round" stroke-miterlimit="10" class="stroke-303030"></path><path d="M29.777 21.6c-.73 2.918-3.086 5.054-5.88 5.054-2.743 0-5.06-2.237-5.833-5.074M30.732 17.546 29 19.16v-3.666a2.236 2.236 0 0 0-2.236-2.236h-5.719a2.236 2.236 0 0 0-2.236 2.236v3.666l-1.58-1.654" fill="none" stroke="#001220" stroke-width=".8" stroke-linecap="round" stroke-linejoin="round" stroke-miterlimit="10" class="stroke-303030"></path><path d="M29.49 22.495s.481 4.146 2.374 5.38l-1.425-.378M18.338 22.495s-.233 4.099-2.126 5.333l1.176-.33M20.341 26.733c0 3.843 7.318 3.876 7.318.027" fill="none" stroke="#001220" stroke-width=".8" stroke-linecap="round" stroke-linejoin="round" stroke-miterlimit="10" class="stroke-303030"></path></svg>