<svg id="visual" viewBox="0 0 100 600" width="100" height="600" xmlns="http://www.w3.org/2000/svg" xmlns:xlink="http://www.w3.org/1999/xlink" version="1.1"><path d="M64 0L60.8 3.2C57.7 6.3 51.3 12.7 47.5 19.2C43.7 25.7 42.3 32.3 45.8 38.8C49.3 45.3 57.7 51.7 57.7 58C57.7 64.3 49.3 70.7 45.5 77.2C41.7 83.7 42.3 90.3 41.5 96.8C40.7 103.3 38.3 109.7 37 116C35.7 122.3 35.3 128.7 41.2 135.2C47 141.7 59 148.3 61.7 154.8C64.3 161.3 57.7 167.7 52 174.2C46.3 180.7 41.7 187.3 38.8 193.8C36 200.3 35 206.7 35.2 213C35.3 219.3 36.7 225.7 40 232.2C43.3 238.7 48.7 245.3 48 251.8C47.3 258.3 40.7 264.7 41.2 271C41.7 277.3 49.3 283.7 55.5 290.2C61.7 296.7 66.3 303.3 62.5 309.8C58.7 316.3 46.3 322.7 46 329C45.7 335.3 57.3 341.7 61.3 348.2C65.3 354.7 61.7 361.3 59.7 367.8C57.7 374.3 57.3 380.7 59 387C60.7 393.3 64.3 399.7 62.2 406.2C60 412.7 52 419.3 52.3 425.8C52.7 432.3 61.3 438.7 62 445.2C62.7 451.7 55.3 458.3 50.8 464.8C46.3 471.3 44.7 477.7 47.2 484C49.7 490.3 56.3 496.7 60.8 503.2C65.3 509.7 67.7 516.3 68.2 522.8C68.7 529.3 67.3 535.7 66.2 542C65 548.3 64 554.7 63.3 561.2C62.7 567.7 62.3 574.3 62.3 580.8C62.3 587.3 62.7 593.7 62.8 596.8L63 600L0 600L0 596.8C0 593.7 0 587.3 0 580.8C0 574.3 0 567.7 0 561.2C0 554.7 0 548.3 0 542C0 535.7 0 529.3 0 522.8C0 516.3 0 509.7 0 503.2C0 496.7 0 490.3 0 484C0 477.7 0 471.3 0 464.8C0 458.3 0 451.7 0 445.2C0 438.7 0 432.3 0 425.8C0 419.3 0 412.7 0 406.2C0 399.7 0 393.3 0 387C0 380.7 0 374.3 0 367.8C0 361.3 0 354.7 0 348.2C0 341.7 0 335.3 0 329C0 322.7 0 316.3 0 309.8C0 303.3 0 296.7 0 290.2C0 283.7 0 277.3 0 271C0 264.7 0 258.3 0 251.8C0 245.3 0 238.7 0 232.2C0 225.7 0 219.3 0 213C0 206.7 0 200.3 0 193.8C0 187.3 0 180.7 0 174.2C0 167.7 0 161.3 0 154.8C0 148.3 0 141.7 0 135.2C0 128.7 0 122.3 0 116C0 109.7 0 103.3 0 96.8C0 90.3 0 83.7 0 77.2C0 70.7 0 64.3 0 58C0 51.7 0 45.3 0 38.8C0 32.3 0 25.7 0 19.2C0 12.7 0 6.3 0 3.2L0 0Z" fill="#22b4ab" stroke-linecap="round" stroke-linejoin="miter"></path></svg>