<svg preserveAspectRatio="none" xmlns="http://www.w3.org/2000/svg" viewBox="0 0 1000 100"><g fill="#22b4ab"><path d="M833 40zM902 39zM902 41a1 1 0 000-1v-1c0-1 0 1 0 0a6 6 0 00-1 1l1 1zM829 30a3 3 0 000-1v1-1a2 2 0 000 1zM771 37l1-1v-1 0a7 7 0 000-1l-1 2v1zM730 39v-1a7 7 0 000-2v3z" fill-rule="evenodd"></path><path d="M991 40l-2-2a6 6 0 010 2c0 1 0 0 0 0v-1-1a2 2 0 010 1v-1l-2-1v-1 0a19 19 0 01-1 2v-1-1 3h-1v1a4 4 0 010 2l-1-1a4 4 0 010 1v1a6 6 0 010-1 6 6 0 010-1 1 1 0 01-1-1v1c0 1 0-1 0 0a9 9 0 010 2h-1 1v-2-1a3 3 0 01-1-2 5 5 0 01-1-1v1l-1-3-1 2v-1h-1-1v-2-1 1a15 15 0 010-1c0-2-1 1-1-1v-1c0-2 1 1 1 1a1 1 0 000-1 1 1 0 010-1h1l-1 1h1v-1a3 3 0 010 1v1l1 1v-1 1h1s0 1 0 0v-2-1l-1-1v-1-1-1-1 1h-1v-1 1a3 3 0 010-1v1l-1 1h-1a1 1 0 010 1c0 1 0 0 0 0v-1a3 3 0 010 1v-1a3 3 0 010-1s0 1 0 0l-1 2v-1h-1a4 4 0 010 2v-2a16 16 0 00-1 2 1 1 0 01-1 0l-2 4v1c0 1 0 0 0 0v0h-1a2 2 0 010-1v1l1-1v1a2 2 0 000-1l-2-2-4 6h-4l-3 2a5 5 0 00-4 2c0 1 0 4-2 4h-5l-4-1c-1-1-1 1-3-3v-1a16 16 0 01-1 3l1-2v-1c1-1 0 0 0 0l-1-1v2a5 5 0 010-1 6 6 0 010 2 4 4 0 01-1 1v1a7 7 0 010-1v-1a25 25 0 010-4v-1a2 2 0 00-2-1v1l-1 2v-1l-1-2v1h-1l-1-1c-1 0 0 1 0 0a4 4 0 010-1 18 18 0 00-2 0 9 9 0 01-1 2h1l-1 2v1c-1 0 0 0 0 0l-1-2-2-1a2 2 0 010-1v-1a5 5 0 010 2l-1-2v0h-1a2 2 0 000 1h0v-1a2 2 0 010 1 3 3 0 010 1 3 3 0 000 1v1h-1v-1-1 3c0 1-1 2-1 0s1 0 1-1c0-2-1-1-1-1a7 7 0 010-1h-1v0h-1s0 1 0 0v2c0 1 0 0 0 0v0l-1 2v-2-1a4 4 0 000 1v0l-1 1a11 11 0 010-2v1c0-1 0 1 0 0h-1v2l-1 1 1-1v-1l-1 1v-1 3l-1-1v-1 5c-1 1-1-1-1-1v-2-1 2l-1 1v-1-1 4c-1 1-1-1-1-1v-1 2l-1 1c-1 1 1 1 1 2h-1v-1a5 5 0 010-1 6 6 0 010 2 4 4 0 01-1 1v1a6 6 0 010-1 25 25 0 010-5v-2l-1-1s0 1 0 0a7 7 0 01-1-1 17 17 0 010 2v-1 3l-1 1c-1 0 0 0 0 0l-1-3v1h-1-1v-1-1l-1-1v0c0-2 0 0-1-1a13 13 0 000 1 4 4 0 010 1v-1l-2 4-2 3c-1 1-3 5-4 4a4 4 0 01-3-2l-3-1-2 3c-1 1-1 4-3 5l-3 2a3 3 0 01-1 2v-2a4 4 0 01-1 0v1s0-1 0 0v1l-1 1v-2 1l-1 2v-3l-1 2v-2l-1 1v-2-1 1c0 1 0 0 0 0a6 6 0 00-1 1l-1 3-1-2v-1 1a5 5 0 01-2 2l-3 1a11 11 0 010 2 15 15 0 010 2 8 8 0 010 2l-1 1-1-1s-1 1-1-1l1 1v-2l-1 1v-1a8 8 0 010-2l-1 1v3a3 3 0 010-2 11 11 0 00-2 2c0 3-2 6-3 4l-4-8-3-9c-1 1-2-2-3-4v1a8 8 0 010-2l-1-1v1a6 6 0 010-2l-1-1v4c-1 0-1-2-2-1l1 2h-1v2l-1 3v-2-1c0-1 0 0 0 0v-1a1 1 0 010-1c1-1 1 3 1 2a7 7 0 000-2 4 4 0 000-1v1c-1-1-1-5-2-3l1 1a3 3 0 01-1 2 5 5 0 01-1 2v1a7 7 0 010-3l1-1a5 5 0 000-1h-1a8 8 0 01-1-3 4 4 0 010-1l1-2v-3l-1-3v2l-1-2v1a3 3 0 01-1 1v2h-1l-1-2v1 0l-1-1a9 9 0 010-2v-1c0-1 0 0 0 0a5 5 0 010-2v2l1-1v1c0 1 0 1 0 0a3 3 0 010 1l1-2v-1l-1-1-1 2a3 3 0 010 1h-1v-1a14 14 0 01-1 3v-2-1 1a3 3 0 010-1v1a9 9 0 010 1l-1 2a10 10 0 010-2v2a6 6 0 010-2 3 3 0 00-1 2l1 2a14 14 0 01-1-2 4 4 0 010-1l-1-1v1a3 3 0 010 1v1a6 6 0 010-2 4 4 0 010-1v-1c0-1 0 1 0 0l-1 5v-5-1-2a1 1 0 010 1c0 1 0 0 0 0 0 1 0 2-1 1a5 5 0 010-1v1a7 7 0 010 3h-1v1-4-1c0-1 0 0 0 0l-1 1v-1a3 3 0 01-2-3 7 7 0 01-3 1c-4 1-3 0-4-2a5 5 0 000-1 14 14 0 01-1-2 2 2 0 00-1 1s0-1 0 0v1 4l-1-2-1 2v-2l1-2c-1-2-1 2-2 1a5 5 0 010-2h1a3 3 0 000-2c-1 0-1 1-1-1a1 1 0 010-1l1 1c0-2-2-1-2-3a9 9 0 011-3l1-1v6l1-1v-1-1a43 43 0 01-1-3v-1l-1-1-2 1 1 1v2a3 3 0 01-1 2v-1l-1 1v-1h-1c0-2 2 0 1-2a6 6 0 000-1 9 9 0 00-2 2 10 10 0 010 3 7 7 0 010-3v1a4 4 0 000 1v-1 3l1 1 1-1-1 3 1 1v-4c0-2 1-1 2 0v1c0 5-2 6-3 5v-1-1h-1l-1 2h-1l-1 2v-1l-1 2v-2-1l-1 4a2 2 0 010 1l-1 2c-1 3 0 4-2 4a22 22 0 00-2 3l-4-2c-1 0-2 2-2-1s0-8-2-9-1-2-3-1l-3 3c-2 3-1 4-3 4s-3-1-4-4v1a3 3 0 010-1l-1-2a7 7 0 010 1c0-1 0 0 0 0v-1a6 6 0 000-1 3 3 0 000-1s0 1 0 0a11 11 0 010 1v-1h-1v3a5 5 0 010-1 6 6 0 01-1 2 4 4 0 010 1v1a7 7 0 010-1 25 25 0 01-1-5v-1h-1l-1 1v1h-1v-2h-1a7 7 0 010 1v-1h-1a2 2 0 00-1 0l-4 6-5-6-5-6-4-3s0 1 0 0v0h-2v1c0 2 0-2-1-1a9 9 0 001 2 3 3 0 01-1 1v3s0 1 0 0v-1-1-1c-1-1-1 2-1 3s-1 2 0 0v-1-1a7 7 0 01-1 0v-1-1 1l-1 1v-1 1h-1c0 3 1 0 1 2l-1 1v-1 0l-1 1v-2 1a1 1 0 010-1v2a1 1 0 010 1v-1-1c0 1 0 0 0 0h-1l-1 1v1a4 4 0 000-1c0-1 0 0 0 0v2l-1-3v1a1 1 0 000 1v0c0-1 0-1 0 0l-1 5v-1-1-1l-1 1v-2 2l-1 2v-1 1l1-3c0-1 0 0 0 0l-1-1v3l-1 2v-1a4 4 0 010-1h1a1 1 0 000-1l-1 1v2c0 1 0 0 0 0v2c0 1 0 0 0 0a5 5 0 010-1 6 6 0 01-1 2v-1a4 4 0 010 1v3l-1-1a7 7 0 011-2 25 25 0 01-1-4v-2a3 3 0 010-2v0a11 11 0 01-1 2l-1 1v1h-1a3 3 0 010-1l-1 1h-2l-1 1h-1l-1 5v-2-1l-1 2v2l-1-2v1l-1 3v-3-1c0-1 0 0 0 0l-1 2v-2l-1 1v-1-1c-1 0 0 0 0 0a6 6 0 00-1 2l-1 2-1-2v-1 1h-1l-1 1v-1l1-3h-1v-1l1-1h-1l-1 1-1 1v-1a6 6 0 01-1 0 12 12 0 00-4 0 6 6 0 01-3 0 6 6 0 010 2l-1 2a4 4 0 000 2l1 1a6 6 0 010 2v1l-1-4v2l-1-1-1 1-1-2v-1l-1 1v-1l-1-1v1a12 12 0 000-2l-1-1-1 1-3-6v-1-1 1l-1-4v2l-1 2a7 7 0 010-3l1-2-1-1a1 1 0 011 0 5 5 0 00-1-1 4 4 0 010 1v1h-1l1 4-1 1s0 1 0 0l-1-1v2c0 1 0 0 0 0l-1 3-1 2v-2l1-1-1-1a1 1 0 010-1c1-1 1 3 1 2a8 8 0 000-2 5 5 0 000-1v1c-1-1-1-4-2-3l1 2a3 3 0 01-1 1 5 5 0 01-1 2l-1 1a7 7 0 011-3s0 1 0 0a5 5 0 000-2l-1 1a8 8 0 01-1-3 2 2 0 010-1h-6l-4 1h-2v27-28c-4 7-10 7-10 7l-1-1a6 6 0 010 2l-1-1v-1a3 3 0 010-1l-1-1-1 1v-1 0a19 19 0 010 2v-2 0l-1 2v-1a4 4 0 010-1h1a1 1 0 000-1v1h-1v4h-1a3 3 0 010-1v1a4 4 0 010 1v1l-1 2v-1a6 6 0 011-2 6 6 0 01-1-1 2 2 0 01-1 0v1l1-1a9 9 0 01-1 2v1a4 4 0 010-1v-1-1a3 3 0 01-1-2 7 7 0 010-1h-1l-1-2v1l-1-1h-1v-2-1l-1 2a15 15 0 010-2v-1c-1 1 0 0 0 0 0-3 0 0 1 0a2 2 0 000-1v0a1 1 0 010-1v2l1 1h1v1c0 1 0 0 0 0v-1l1-2h-1v-1-1-1a1 1 0 010-1v-1-1l-1 1s0 1 0 0c0 0 0 1 0 0l-1 1a3 3 0 01-1 0c0 1 0 1 0 0v1a1 1 0 010 1 1 1 0 010-1l-1 1 1-1h-1a3 3 0 010-2v2a4 4 0 000-1l-1 1a5 5 0 010 1v-1a15 15 0 00-2 1l-2 5v2c0 1 0 0 0 0v-1h-1a2 2 0 010-1s0-1 0 0h1a2 2 0 000-1c-2-1-1-2-3-1s-2 5-3 5h-4c-1 1-2 3-4 3a5 5 0 00-3 2l-2 3h-5l-5-1c0 1 0 0 0 0l-2-3-1-1a2 2 0 000 1 17 17 0 010 3v-3-1 1a5 5 0 010-1 6 6 0 01-1 3v-1a4 4 0 010 1v1a6 6 0 010-1 25 25 0 010-5v-1a2 2 0 00-2 0v1l-1 1-1-3-1 2v-1h-1-1a5 5 0 010-1l-2-1a10 10 0 010 3s0-1 0 0v3c0 1 0 0 0 0l-1-1v-2l-2-1a2 2 0 010-1 3 3 0 010-1 5 5 0 010 3l-1-3v0c0 1 0 1 0 0h-1v1a3 3 0 010 1l-1 1a1 1 0 011 1h-1v1c0 1 0 1 0 0v-1-1-1 3c0 1-1 2-1 0v-1-1a7 7 0 010-1 2 2 0 01-1 0c0 1 0 0 0 0v2l-1-2v1a3 3 0 010-1v4h-1v-1-1 0a4 4 0 00-1 1l1 1a1 1 0 01-1 1v-1-2 1a11 11 0 010-1v0l-1 1v-1 2h-1v1a4 4 0 000-1v-1 1a1 1 0 00-1 0v1c0-1 0-1 0 0l-1 4c0 1 0 0 0 0v-1-1-2l-1 2c-1 0 0 0 0 0v-1 0l-1 4v-1 1a4 4 0 010-1c0-1 0 0 0 0a1 1 0 000-1v1l-1 2c-1 1 0 0 0 0v2c0 1 0 0 0 0a5 5 0 010-1 6 6 0 01-1 2v-1a4 4 0 010 1v2a6 6 0 010-2 25 25 0 010-5v-1a2 2 0 010-1h-1v-1 1a4 4 0 01-1-1 7 7 0 010-1 17 17 0 010 2v-1 2a1 1 0 010 1l-1 1-1-2v1h-1v-1h-1c-1 0 0 0 0 0v-2l-1-1v0c0-2-1 1-1-1a13 13 0 00-1 1 4 4 0 010 1l-1 3-2 4c-1 2-3 4-5 4a4 4 0 01-2-2l-3-2c-1 0 0 3-2 4s-1 3-3 4l-3 3a3 3 0 010 1l-1-2v1h-1v1c0 1 0 0 0 0v1l-1-2v1l-1 2 1-2-1-1c-1 0 0 0 0 0l-1 2 1-2-1 1-1-1 1-2-1 1c-1 0 0 0 0 0a6 6 0 00-1 2l-1 2c-1 1-1-1-1-2h1v-1l-1 1a5 5 0 01-2 2l-2 1h-1a11 11 0 011 2 15 15 0 010 2 8 8 0 010 2l-1 1-1-1c-1 0-2 1-2-1l1 1v-1-1a8 8 0 01-1-2v1h-1v3a3 3 0 010-2 11 11 0 00-1 3c-1 2-3 5-4 3l-3-8-4-9c-1 1-2-2-3-4v1a8 8 0 010-2v-1l-1 2a6 6 0 010-3l-1-1 1 3-1 1-1-1 1 2h-1l-1 3-1 2v-1-1-1-1a1 1 0 010-1s0 4 1 2a8 8 0 000-1 5 5 0 000-2l-1 1-1-3v2a3 3 0 010 1 5 5 0 01-1 2h-1v1a7 7 0 011-3h1a5 5 0 00-1-2v1h-1a8 8 0 010-3 4 4 0 010-2l1-2-1-2-1-4v3l-1-2a3 3 0 010 1 3 3 0 010 1h-1v1 1l-1-2s0 1 0 0v1l-1-1v-1a9 9 0 010-1v-1a6 6 0 010-1 5 5 0 010-1v1a1 1 0 010 1l1 1v-2-1-1l-1-1a2 2 0 010 1l-1 2s0 1 0 0h-1a14 14 0 010 3v-3 0a2 2 0 00-1 0 9 9 0 010 1v2a11 11 0 010-1v1a6 6 0 010-1 3 3 0 010-1h-1a3 3 0 000 3v2a14 14 0 01-1-3 4 4 0 010-1v-1 1a3 3 0 010 1s0-1 0 0l-1 1a6 6 0 010-1 2 2 0 010-1 4 4 0 011-1h-1 1l-1 4v-4-1-2a5 5 0 010 1v-1l-1 2a5 5 0 010-1v1c0 1 0-1 0 0a7 7 0 010 2l-1 1v-1l-1 1 1-3v-1h-1v-1a3 3 0 01-2-2 7 7 0 01-3 1c-4 1-3-1-4-3a5 5 0 000-1 13 13 0 01-2-1h-1l1 2-1 1v-2 4l-1-1v2l-1-2 1-3-1 2a5 5 0 010-2c0-1 0 1 0 0a3 3 0 000-2c0-1-1 1-1-1a1 1 0 010-1l1 1-1-4a9 9 0 010-2l1-1v1l1 2v1h1l-1-1a43 43 0 01-1-4c0-2 0-2-1-1l-1 1v3l1-2v2a3 3 0 01-1 2l-1-1v1l-1-1h-1c0-3 2 0 2-2a6 6 0 000-1 9 9 0 00-2 2 10 10 0 010 3 7 7 0 010-3l-1 1a4 4 0 000 1l1-1v3l1 1v-1 3l1 1v-4c0-2 1-1 1 0l1 1c0 5-2 5-3 5l-1-1 1-1h-1l-1 1-2 1v2l-1-1v-1h-1l-1 4a2 2 0 010 1v2a4 4 0 010-1l-2 5a22 22 0 00-3 2l-3-1s-2 1-2-1 0-8-2-9-2-2-3-1l-3 3c-2 3-1 4-3 4s-3-1-4-4l-1 1a3 3 0 010-1h1a2 2 0 000-1l-1-2a9 9 0 010 1c0 1 0 1 0 0 0 0 0 1 0 0v-1-1a3 3 0 00-1 0 11 11 0 010 1v-1a3 3 0 000-1v4h-1a5 5 0 010-1 6 6 0 010 2l-1 1v1a7 7 0 010-2 25 25 0 010-4v-2h-2v1l-1 1c-1 0 0 0 0 0v-2h-1a7 7 0 010 1l-1-1c-1-1 0 0 0 0a2 2 0 00-1 1l-4 6s-3-6-5-7l-5-6-4-3v2l-1-2v0h-1v1a2 2 0 010-1 2 2 0 00-1 0l1 2-1-1a9 9 0 000 1 3 3 0 010 2s0-1 0 0v2h-1v-1-2 3l-1 1c0-2 1 0 1-1 0-2-1-1-1-1a6 6 0 010-1v-1-1 2l-1-1v1s0-1 0 0v0h-1v1c0 2 0-1 1 1h-1v2l-1-2v0h-1a7 7 0 010 1v-1s0 1 0 0l-1 1v2-1a1 1 0 010-1l-1 1v-1c0-1 0 0 0 0a1 1 0 000 1v1l-1-1v4l-1-1v-1-1 1l-1 2v-1-1s0 1 0 0v4l-1-2v1a4 4 0 010-1v4h-1a5 5 0 010-1 6 6 0 010 2h-1a4 4 0 010 1v2l-1-1a6 6 0 011-1 25 25 0 01-1-5v-2a3 3 0 010-1 11 11 0 01-1 2h-1v2l-1-1-1 1h-1c0 1 0 0 0 0h-1l-1 1-1-1-1 6v-2-1l-1 1v1s0-1 0 0v1l-1 1v-2 1l-1 2v-3l-1 2v-3c-1-1 0 1-1 1v-1-1 1a6 6 0 00-1 1l-1 2-1-1v-1l-1 1-1 1v-2l1-2h-1v-1-1h-1a2 2 0 010 1l-1 1v-1a6 6 0 01-1 0 11 11 0 00-5 0 6 6 0 01-2 0 6 6 0 010 2l-1 2a4 4 0 000 1l1 2a6 6 0 010 2l-1-3c0-1 0 1 0 0v2l-1-1-1 1-1-2c0-1 0 0 0 0v-2c0-1 0 1 0 0l-1 1v-1h-1v-1 2a12 12 0 000-2l-1-1v-1l-1 1-3-6-1-1 1 1-1-4v2l-1 1a7 7 0 010-3l1-1-1-1a1 1 0 010-1v2c0 1 0 0 0 0l-1-1v6c-1 0-1-3-2-1l1 2h-1v2l-1 3v-2-1c0-1 0 0 0 0v-2c1-1 1 3 1 2a8 8 0 000-2 5 5 0 000-1c0-1 0 0 0 0-1 0-1-4-2-2l1 1a3 3 0 01-1 1 5 5 0 01-1 2c0 1 0 1 0 0v1a7 7 0 010-3h1a5 5 0 000-1h-1a8 8 0 01-1-3 2 2 0 010-1h-7l-3 1h-3v1c-4 7-9 7-9 7l-1-1a6 6 0 01-1 2v-1-1a3 3 0 010-1l-1-1h-1v0a19 19 0 010 2v-2l-1 1v-1 1a4 4 0 010-1 1 1 0 000-1v5h-1a3 3 0 010-1v1a5 5 0 010 1l-1 1v1a6 6 0 010-2 6 6 0 010-1 2 2 0 01-1 0v0a9 9 0 010 2v1a4 4 0 010-1v-1-1a3 3 0 01-1-2 6 6 0 010-1h-1c-1 0 0 0 0 0l-1-2v1h-1l-1-1c-1-1 0 1 0 0v-2h-1v1a15 15 0 010-2v-1l-1 1v-1c0-3 1 0 2 0a2 2 0 000-1v0a1 1 0 010-1v2l1 1h1v-2a1 1 0 010-1v-1-1a1 1 0 010-1v-1l-1-1v1s0 1 0 0c0 0 0 1 0 0a3 3 0 01-1 0v1a3 3 0 01-1 0c0 1 0 1 0 0a1 1 0 000 1 1 1 0 010 1h-1a1 1 0 010-1v0h1-1a3 3 0 010-2v1l-1 1v-1 1a5 5 0 010 1l-1-1a15 15 0 00-1 1c0 1 0 0 0 0l-2 5v2c0 1 0 0 0 0v-1h-1a2 2 0 010-1s0-1 0 0a2 2 0 000-1c-1-1 0-2-2-1s-3 5-3 5h-4l-4 3a5 5 0 00-3 2c-1 1-1 3-3 3h-4l-5-1c0 1 0 0 0 0-1 0-1 1-2-3l-1-1v1a16 16 0 010 3v-3-1 2c0 1 0 0 0 0a5 5 0 01-1-1 6 6 0 010 2v-1a4 4 0 010 1v2l-1-1a6 6 0 011-1 25 25 0 01-1-5 2 2 0 00-1-1l-1 1v1h-1v-3l-1 2v-1h-1-1a5 5 0 010-1h-2a10 10 0 010 2s0-1 0 0v3h-1v-1l-1-2-1-1a2 2 0 010-1 3 3 0 010-1h-1a5 5 0 010 3v-3h-1v2c0 1 0 0 0 0v-1a3 3 0 01-1 1v1a1 1 0 010 1v1h-1v-2-1 3c0 1-1 2-1 0 0-1 1 1 1-1l-1-1a4 4 0 010-1 1 1 0 010 1v-1a1 1 0 01-1 0v1h-1s0-1 0 0c0 3 1 0 1 2h-1v1l-1-1v1a15 15 0 010-2v0a4 4 0 000 1v1a1 1 0 010 1v-1-2 1a11 11 0 010-1h-1v0h-1v2c0 1 0 1 0 0 0 1 0 2-1 1h1a4 4 0 000-1h-1v-1 1a1 1 0 000 1v0h-1v4l-1-1v-1-1 1l-1 2v-1-1c0-1 0 0 0 0v-1 5l-1-2v1a4 4 0 010-1 1 1 0 000-1v3c0 1 0 0 0 0v2c0 1 0 0 0 0h-1a5 5 0 010-1 6 6 0 010 2v-1a3 3 0 010 1l-1 1v1a6 6 0 010-2 25 25 0 010-4v-2a2 2 0 010-1h-1v-1 1a4 4 0 010-1 7 7 0 01-1-1 17 17 0 010 2v1a1 1 0 010 1l-1 1c-1 0 0 0 0 0l-1-2v1l-1-1h-1v-2-1l-1 2v-2c0-1-1 1-1-1a13 13 0 00-1 2 4 4 0 011 0h-1l-1 3-2 4c-1 2-3 4-5 4a4 4 0 01-2-2l-3-2c-1 0 0 3-2 4s-1 3-3 4l-3 3a3 3 0 010 1c-1 1-1-1-1-2v1h-1v2l-1-2v1l-1 3 1-3h-1v-1l-1 2 1-2-1 1-1-1 1-1h-1c-1 0 0 0 0 0a6 6 0 00-1 2l-1 2-1-1 1-1h-1a5 5 0 01-2 2l-2 1h-1a11 11 0 011 2 15 15 0 010 3 8 8 0 010 2l-1 1-1-2v1l-2-1h1v-1-1a9 9 0 01-1-1l-1 1v2a3 3 0 010-2 10 10 0 00-1 3c-1 2-3 5-4 3l-3-8c0-1-3-9-4-8l-3-5v1a8 8 0 010-2v-1l-1 2a6 6 0 010-3l-1-1 1 3-1 1v1l-1-2 1 2h-1v3l-1 2v-1-1-1l-1-1a1 1 0 011-1s0 3 1 2a7 7 0 000-2 4 4 0 000-1l-1 1-1-3v2a3 3 0 010 1 5 5 0 01-1 2h-1v1a7 7 0 011-3s0 1 0 0a5 5 0 000-2l-1 1a8 8 0 01-1-3 4 4 0 010-2c1-1 2-1 1-2v-2l-1-4v0l-1 3v-2a3 3 0 010 1 3 3 0 010 1h-1v2l-1-2-1 1v-1l-1-1a9 9 0 010-1v-1h1a6 6 0 010-1 5 5 0 010-1v1s0-1 0 0a1 1 0 010 1v1l1-2v1s0-1 0 0v-1-1-1l-1-1a2 2 0 010 1l-1 2h-1a14 14 0 010 3v-3 1l-1-1a9 9 0 010 1v2a10 10 0 010-1v1l-1 1v-1a6 6 0 010-1 3 3 0 010-1 3 3 0 000 3v2a14 14 0 01-1-3 4 4 0 010-1v-1l-1 1a3 3 0 010 1h1a3 3 0 01-1 0v1a6 6 0 010-1 1 1 0 010-1 4 4 0 010-1v4-4-1-2h-1a5 5 0 010 1v-1 2a5 5 0 010-1h-1v1h1a7 7 0 01-1 2v1l-1-1v1l1-3v-1h-1v-1a3 3 0 01-2-2 7 7 0 01-3 1c-4 1-3-1-4-3a4 4 0 00-1-1 13 13 0 01-1-2 2 2 0 000 1h-1l1 2-1 1v-2 4l-1-1v2l-1-2 1-3-1 2a5 5 0 010-2h1a3 3 0 00-1-2c0-1-1 1-1-1a1 1 0 010-1l1 1-1-4a9 9 0 010-2l1-1v1l1 2v-2a2 2 0 01-1-2c0-2 0-2-1-1l-1 1v3l1-2a21 21 0 010 2 3 3 0 01-1 2l-1-1-1 1v-1h-1c0-3 2 0 2-2a6 6 0 00-1-1 9 9 0 00-1 2 10 10 0 010 3 7 7 0 010-3l-1 1a4 4 0 000 1l1-1v3l1 1v-1 3c0 1 0 2 1 1v-4c0-2 1-1 1 0l1 1c0 5-2 5-3 5l-1-1v-1h-1v1l-2 1v1l-1 1v-1 2l-1-2 1-1h-1l-1 4a2 2 0 010 1v2a4 4 0 010-1l-2 5a22 22 0 00-3 2l-4-1c-1 1-1 1-2-1s0-8-1-9-2-2-4-1l-2 3-3 4c-1 0-3-1-4-4l-1 1a3 3 0 010-1c0-1 0 0 0 0a2 2 0 000-1v-2a7 7 0 010 1c0 1 0 1 0 0 0 0 0 1 0 0v-1l-1-1a11 11 0 010 1v-1a3 3 0 000-1v2h-1v2c0 1 0 0 0 0a5 5 0 010-1 6 6 0 010 2 4 4 0 01-1 0v2a6 6 0 010-2 26 26 0 010-4v-2h-2v1l-1 1-1-2a9 9 0 010 1h-1v-1a2 2 0 00-1 1l-5 6-4-7-5-6-4-2-1-1v0h-1l-1 1a2 2 0 010-1v1a10 10 0 000 1 3 3 0 010 2h-1v-1 3l-1 1v-1-1a5 5 0 010-1v-1-1h-1v2s0-1 0 0v2l-1-2v3h-1v-1 2l-1-1v-1s0 1 0 0a6 6 0 010 1v-1s0 1 0 0h-1v2l-1 1v-1a1 1 0 010-1v0c0-1 0 0 0 0a1 1 0 00-1 1v1l-1-1v2l-1 1v-2 1a20 20 0 000 2v-1l-1 3v-2 1l1-3h-1v2l-1 1 1-1c-1-1-1 2-1 2v-1a4 4 0 010-1v4h-1a5 5 0 010-1 6 6 0 010 2 4 4 0 010 1l-1 2v-1a6 6 0 011-1 1 1 0 01-1-1 25 25 0 010-4v-2a3 3 0 010-1 11 11 0 01-2 2l-1 2v-1l-1 1h-1c0 1 0 0 0 0h-1l-1 1-1-1-1 6v-2-1l-1 1v1s0-1 0 0v1l-1 1v-2l-1 1c0 1 0 3-1 2s1-2 1-3c-1 0-1 3-2 2s1-2 1-2h-1v-1-1 1a6 6 0 00-1 1l-1 3-1-2v-1l-1 1c-1 1 0 0 0 0l-1 1v-2-2-1-1h-1a2 2 0 01-1 1v0a6 6 0 01-2 0 11 11 0 00-4 0 6 6 0 01-2 0 7 7 0 010 2l-1 2a4 4 0 000 1l1 2a6 6 0 01-1 2s1 0 0 0v-3 2l-1-1-1 1-1-2c0-1 0 0 0 0v-2h-1v0h-1v-1 2a12 12 0 000-2l-1-1v-1l-1 1-3-6-1-1 1 1-1-4v2c0 1 0 3-1 2s1-3 0-2v1a7 7 0 010-3l1-1-1-1a1 1 0 010-1v2h-1v4h-1l1 1c-1 0-1-3-2-1l1 2h-1v2l-1 3v-2-1c0-1 0 0 0 0v-2a1 1 0 010-1l1 3a7 7 0 000-2 4 4 0 000-1c0-1 0 1 0 0-1 0-2-4-2-2v1a3 3 0 010 1 5 5 0 01-1 2v1h-1a7 7 0 011-3h1a5 5 0 000-1h-1-1a8 8 0 010-3 2 2 0 010-1H6l-4 1H0v71l1000 2V33c-4 7-9 7-9 7zm-12-10v0zm0-2v0zm0 3v-1 1zm0-5zm0 4l-1 1 1-1zm-1 0c0-1 0-1 0 0a2 2 0 010-1v1zm-1-2v-1a1 1 0 010 1h1v1h-1c0 1 0 0 0 0a1 1 0 010-1zm0 0v-1 1c0 1-1 1 0 0zm-167-7v0zm0 1v0zm-164 7zm0-2c-1 0 0 0 0 0zm-1 2v-1 1zm0-5zm0 4v0zm0 0v0a2 2 0 01-1 0h1zm-1-1v-1 1c0 1 0 0 0 0v0zm-1 0v-1 1l1-1v1l-1-1v1zm-167-7h0zm0 1zm-163 8zm-1-2zm0 2v-1 1zm0-5zm0 4v0zm-1 0h1l-1 1v-1h1zm0-1v-1 1c0 1 0 0 0 0v0zm-1 0v-1 1l1-1c1 0 0 0 0 0l-1 1v-1 1zm-167-7zm0 1zM13 52h-1l1 1v-1zm1-1l-1-1a3 3 0 010-2l1 2-1 1zm8 6l-1 1 1-1zm5-6l-1-1 1 1zm1-6l-1 1v-2a3 3 0 011 1zm0 4v0zm1 1a1 1 0 011-1c0-1 0-1 0 0l-1 1zm2 2l-1-2 1 2zm3-13a2 2 0 010 1h1l-1 2-1 1a3 3 0 010-1l1-2v-1zm-2 3l1-1v-1l1 1a3 3 0 01-1 1h-1zm3 5h-1v1a3 3 0 01-1-1v-1l1 1v-1-1c0-1 0 0 0 0l1 2zm0-5l-1 1v-1a3 3 0 011-1h1l-1 1zm0 8a3 3 0 010-1v1zm1-2zm3 10l-2 1v-1-2l1 2h1zm-1-4a7 7 0 010 2h-1l1-1-1-1v-1s0 1 0 0l1 1v-1l1-1a4 4 0 01-1 2zm2 5h-1 1zm0-3h-1v1a2 2 0 010-1v-1s0-2 1-1a3 3 0 010 2zm0-12v0 3a15 15 0 010 2 8 8 0 010 2l-1 1-1-2v1l-1-1 1 1v-3l-1 1c0-1 0 0 0 0v-2l-1-1h1v-1l1-1-1-1 1-1s-1 0 0 0v-1l1-1v-2h1v1l-1 1a3 3 0 000 1h1v1h-1v1l2 1h-1zm5 9l-1 1 1-1zm14-17a5 5 0 010 1v-1zm0 8a9 9 0 010 1h-1l1-1zm0-4c0 1 0 0 0 0zm0-2a16 16 0 010 4v-3a4 4 0 010-2v1zm2 3a3 3 0 01-1 0v1a6 6 0 010-2v1h1zm0-3a9 9 0 01-1 1l1-1zm0 2v1a3 3 0 010-1v-1a5 5 0 010-1v1c0 1 0-1 0 0a9 9 0 010 1zm2 3a9 9 0 010 1v-1zm1-4h-1 1zm0-2a17 17 0 010 4v-3c0-1 0 0 0 0a4 4 0 010-2v1zm1 3v1a6 6 0 010-2v1zm0-3a7 7 0 010 1c0-1 0 0 0 0v-1zm1 2v1a3 3 0 010-1v-1a5 5 0 010-1v1s0-1 0 0a9 9 0 010 1zm2-7h-1l1 1h-1l1-1zm-1 7v0zm1-4a8 8 0 010 3l-1-1v-1a2 2 0 010 1v-1-1l1 1v-1a8 8 0 010 1c-1 1 0 0 0 0v-1zm0-1v2a6 6 0 010-2zm4 2v-1-1a6 6 0 010 1zm2-8v-1s0-1 0 0v1zm27 6c0-1 0-1 0 0v-1zm-1 7v1a9 9 0 010 1v-2zm1-3l-1-1 1 1zm0-2a17 17 0 010 3v-2-1a4 4 0 010-1v1zm1 2a3 3 0 010 1v1a6 6 0 010-2zm0-3a9 9 0 010 2v-1s0 1 0 0v-1zm1 3v1a3 3 0 010-1v-1a5 5 0 010-1v0a9 9 0 010 2zm1 11a4 4 0 010-1v2zm1-9v1a10 10 0 010 1v-1-1zm0-3v-1 1zm1-2a16 16 0 01-1 3l1-2-1-1a4 4 0 011-1v1zm1 2a3 3 0 010 1h-1a6 6 0 010-1h1zm12 2c-1 0-1 3-1 1l1-1zm6 15c0 1 0 1 0 0v-1 1zm0-7v-1 1zm10-3l-1-3 1 3zm5-9l-1-1 1 1zm-1 2c0-1 1 0 0 0l1 1c0 2-1 0-1-1zm2 1v-3s0 3-1 2a8 8 0 010-3l1 1c1 0 0 0 0 0v3zm2 0c-1 1-1 1-1-1 0-1 0 1 0 0l1-2a12 12 0 010 3zm1-2l-1 1v-1l1-2a6 6 0 010 2zm9 2a4 4 0 01-1-2l1-1v3zm1 6v-1l1-1-1 2zm1-5h-1l1-1-1-1 1 2zm5 5a9 9 0 010 1c0 1-1 0 0 0v-1zm0-3v-1 1zm0-2a16 16 0 010 3v-3a4 4 0 010-1c0-1 0-1 0 0v1zm2 5h-1 1zm2-1a10 10 0 010 1c0 1 0 0 0 0v-1zm1-3l-1-1 1 1zm0 6a10 10 0 010-3c0-1 0 0 0 0v3zm1-7l1-2-1 2zm0 1v1a6 6 0 010-1c0-1 0-1 0 0 0 0 0-1 0 0zm5 31v-1l1 2zm1-2v-1a3 3 0 010-1v2zm8 7s0 1 0 0zm6-6l-1-2 1 2zm1-2l-1 1 1-1zm8 4h1v1h1v-1-1a4 4 0 010 1 7 7 0 010 3h-1l1-1-1-1v-1h-1zm1 5l-1 2 1-2v-2 2l1-1-1 1zm2 4h-1 1zm0-3v-1 1zm1-4l-1 1v1a2 2 0 010-1v-2-1a3 3 0 011 2zm5-2l-1 1 1-1zm30-31s0 1 0 0zm5 5c0-1 0-1 0 0v-1zm-1 7v1a10 10 0 010 1v-2zm1-3h-1c0-1 0 0 0 0h1zm0-2a16 16 0 010 3v-2-1a4 4 0 010-1v1zm1 2a3 3 0 010 1v1a6 6 0 010-2zm0-2a7 7 0 010 1c0-1 0 0 0 0v-2zm1 2v1a3 3 0 010-1v-1a5 5 0 010-1v1s0-1 0 0a9 9 0 010 1zm2 2v1a9 9 0 010 1v-1-1zm0-3v-1 1zm1-2a16 16 0 01-1 3v-2-1a4 4 0 011-1v1zm1 2a3 3 0 010 1h-1a6 6 0 010-1h1zm0-3a7 7 0 010 1h-1 1v-1zm0 3v1a3 3 0 010-1v-2a5 5 0 010-1v2l1-1a9 9 0 01-1 2zm2-8v1s0-1 0 0v-1zm0 8v2l-1-1 1-2v1zm1-4a8 8 0 01-1 3v-1-1-1a8 8 0 010 1c0 1 0 0 0 0l1-1zm0-1v1a6 6 0 010-1s0-1 0 0zm4 1h-1l1-1a6 6 0 010 1zm1-1h-1 1zm1-7l-1 1c-1 0 0 1 0 0l1-1s0-1 0 0zm2 9a10 10 0 010-3c0-1 0 0 0 0v3zm1-7v-2 2zm1 0v-1 1zm1-1v-1a7 7 0 010 2v-1zm0 4v-2 1zm1 0v-1a1 1 0 010 1zm1-1v-1s0-1 0 0a2 2 0 010 1zm6-4v1a1 1 0 010-1zm0 8v1a9 9 0 010 1l-1-1 1-1zm0-3v-1 1zm0-2a16 16 0 010 3v-3a4 4 0 010-1s0-1 0 0v1zm2 2a3 3 0 01-1 1v-1 1a6 6 0 010-1c0-1 0 0 0 0h1zm0-3a9 9 0 01-1 1c0 1 0 1 0 0l1-1zm0 3s0 1 0 0v-2a5 5 0 010-1v1c0 1 0-1 0 0a9 9 0 010 2zm2 2a9 9 0 010 1c0 1 0 0 0 0v-1zm1-3l-1-1 1 1zm1 0c0 1 0 0 0 0v1a6 6 0 010-1c0-1 0-1 0 0zm32-12s0 1 0 0zm1-1v-1 1zm1 2c0 1 0 0 0 0zm0-2a1 1 0 010 1v-1zm0 2v-1 1zm1-4v1a3 3 0 010-1zm0 1c0 1 0 1 0 0zm0 5a2 2 0 010-1v1zm1-3a2 2 0 01-1 1c0-1 0 0 0 0v-1zm0-1v-1 1zm0 5v-1 1zm0-2a1 1 0 010-1v1zm0-4zm0 0l1 1a2 2 0 01-1-1h1a1 1 0 010 1s0-1 0 0c0 0 0-1 0 0a2 2 0 01-1-1v1zm0-1a4 4 0 010 2 5 5 0 010-2zm0 6s0 1 0 0zm5 5c0-1 0-1 0 0zm0 7v1a9 9 0 01-1 1l1-2zm0-3v-1 1zm0-2a16 16 0 010 3v-2-1a4 4 0 010-1v1zm1 2a3 3 0 010 1v1a6 6 0 010-2zm0-2a9 9 0 010 1c0-1 0 0 0 0v-2zm3 4v1a9 9 0 010 1v-2zm0-3v-1 1zm1-2a16 16 0 010 3v-2-1a4 4 0 010-1v1zm1 2a3 3 0 010 1v1a6 6 0 010-2c0-1 0 0 0 0zm0-3a9 9 0 010 2v-1s0 1 0 0v-1zm1 3l-1 1a3 3 0 010-1h1v-1a5 5 0 010-2v1a9 9 0 010 2zm1 0v-1 1zm667 1v1l-1 1v-1l1-1zm-2 0v-1a5 5 0 010-1v1c0 1 1-1 0 0a9 9 0 010 2s0 1 0 0a4 4 0 010-1zm-1-1l1-1a9 9 0 010 1h-1zm0 2h1c1 1 0-1 0 0h-1v1a6 6 0 010-1zm-1-2a4 4 0 010-1h1l-1 1a16 16 0 010 3v-3zm0 1v0zm0 5v-1a9 9 0 010 1c0 1 0 0 0 0zm-3-5v-1a7 7 0 010 1c0 1 0 1 0 0zm0 2c0-1 0 0 0 0 0 1 0 0 0 0v1a6 6 0 010-1zm-1-5v1a1 1 0 010-1zm0 3a4 4 0 010-1s0-1 0 0v1a16 16 0 010 3v-3zm-1 1v0zm0 5v-1 1a7 7 0 010 1v-1zm-6-18h1-1zm1 4v0zm1 1zm0-5s0 1 0 0a2 2 0 000 1v-1a2 2 0 010 1 2 2 0 010-1c0-1 0 0 0 0zm0-1a5 5 0 010 1 4 4 0 010-1zm0 0a1 1 0 010 1l-1-1h1zm0 4h-1 1zm-1-2v-1 1zm0 1s0-1 0 0zm0 2h-1 1zm-1-5h0v1a2 2 0 010-1zm0 3v0zm0-1zm-1 2s1 0 0 0zm0-3v0zm-1 2zm-33 11h1c0 1 0 0 0 0a3 3 0 010 1l-1 1a6 6 0 010-2zm-1 0c0 1 0 0 0 0 0-1 0 0 0 0zm0 5v-2 1a9 9 0 010 1zm-2-4v-1a5 5 0 010-1v1s0-1 0 0a9 9 0 010 1l-1 1a4 4 0 011-1zm-1-1c0-1 0 0 0 0v-1a9 9 0 010 1zm0 1a3 3 0 010 1v1a6 6 0 010-2zm-1-4c0-1 0 0 0 0v0zm0 3v-1a4 4 0 010-1v1a16 16 0 010 3v-2zm-1 1h0zm0 5v-1a9 9 0 010 1zm-6-6l1-1a2 2 0 01-1 2v-1zm-1 1h1a1 1 0 01-1 1v-1zm0 0v-1-1 2zm0-4v-1a7 7 0 010 2v-1zm-2 1h0zm-1 1l1-2-1 2zm0 3v3a9 9 0 010-3zm-3-6h1l-1 1v-1zm-1 8v-1 1zm-1-1a6 6 0 010 2v-1-1zm-4 1h1l-1 1a6 6 0 010-1zm0-3v2l-1-1 1-1zm0 4v-1a9 9 0 010 2s0-1 0 0v-1a8 8 0 010 2c0 1 0 0 0 0h-1l1-1v-1a2 2 0 010 1l-1-1 1-1zm-1 3v0zm-1 0s0 1 0 0v-1a5 5 0 010-1v1c0 1 0-1 0 0a9 9 0 010 2s0 1 0 0a3 3 0 010-1zm-1-1v-1a7 7 0 010 1s0 1 0 0zm0 2c0-1 0-1 0 0 0 0 0-1 0 0v1a6 6 0 010-1zm-1-2a4 4 0 010-2v2a16 16 0 010 3v-3zm0 1v0zm-1 5l1-1a9 9 0 01-1 1c0 1 0 0 0 0zm-2-4v-1a5 5 0 011-1l-1 1h1a9 9 0 01-1 2s0 1 0 0a4 4 0 010-1zm-1-1h1v-1a9 9 0 010 1h-1zm0 2h1c0 1 0-1 0 0l-1 1a6 6 0 010-1zm-1-5h1v1h-1a1 1 0 010-1zm0 3a4 4 0 011-1c0-1 0-1 0 0v1a16 16 0 01-1 3v-3zm0 1v0zm0 5v-1a9 9 0 010 1c0 1 0 0 0 0zm-5-13h0zm-38 33l1 2h1l-2 1v-1-2zm2 3l1 1-1-1zm6-6v1zm-6 3l1-1v-1a3 3 0 010 2v2a2 2 0 01-1-2zm0 7l-1-1 1 1zm-1-10v1s0 1 0 0v-1h1v1a7 7 0 01-1 2c0 1 0 1 0 0v-1-1h-1v-1h1zm-10-4v0zm-1 3v-2 2zm-5 5l-1 1 1-1zm-9-9l1 2v1l-1-1a3 3 0 010-2zm0 5v-1h-1l1 1zm-6-32l1-2v2zm0 0h1c1 0 0 0 0 0a3 3 0 010 1h-1v1a6 6 0 010-2zm0 3v3a9 9 0 010-3zm-1-3v-1 1zm0 3v1a9 9 0 010 1v-2zm-10 0v0zm8 2l-1-1 1 1zm-2-6a4 4 0 010-1v1a16 16 0 010 3v-2-1zm-1 2h0c0-1 0 0 0 0zm0 5v-2 1a9 9 0 010 1zm-5-7c0 1 0 0 0 0v-1-1 2zm-1-3s0-1 0 0l-1 3a4 4 0 010-2l1-1zm-10 0v-1a6 6 0 010 2l-1 1 1-2zm-1 2v-2a12 12 0 010 3l-1-1h1zm-2-3v1h1v0l-1 1a8 8 0 010-2zm-1 1v-1 1zm0 2v1l-1-2 1 1zm-5 3v3-3zm-9 6c0 1 0 1 0 0zm0 6v2h-1l1-2zm-7-14l-1 2 1-2zm-12-1c0-1 0-1 0 0v1a6 6 0 010-1zm-1-2a4 4 0 010-2v1a16 16 0 010 4v-3zm0 1v0zm-1 5l1-1a9 9 0 01-1 1c0 1 0 0 0 0zm-1 7c1-1 1 1 1 2l-1-1a3 3 0 010-1zm-1-11v-1a5 5 0 011-1l-1 1h1a9 9 0 01-1 2s0 1 0 0a3 3 0 010-1zm-1-1h1v-1a9 9 0 010 1h-1zm0 2h1s0-1 0 0l-1 1a6 6 0 010-1zm-1-5h1a5 5 0 010 1h-1a1 1 0 010-1zm0 3a4 4 0 011-1c0-1 0-1 0 0v1a16 16 0 01-1 3v-3zm0 1v0zm0 4a9 9 0 010 1c0 1 0 0 0 0v-1zm-26-14v-1 1l-1 1s0 1 0 0c0-2 0-2 1-1zm-2 7a6 6 0 01-1 1l1-1zm-4 0s0-1 0 0v1a6 6 0 010-1zm-1-3v1s0-1 0 0v-1zm0 4a9 9 0 010 1c0 1 0 0 0 0l1-1a8 8 0 01-1 3v-1-1-1zm0 3v3l-1-1 1-2zm-2 1c0-1 0 0 0 0v-2a5 5 0 011-1l-1 1h1a9 9 0 01-1 2v1a4 4 0 010-1zm-1-2h1v-1a9 9 0 010 1h-1zm0 2h1a3 3 0 010 1h-1a6 6 0 010-1zm-1-2c1 0 0 0 0 0a4 4 0 011-1v1a16 16 0 01-1 3v-3zm0 1v0zm0 5v-1 1a9 9 0 010 1v-1zm-2-3v-2a5 5 0 010-1v1c0 1 0 0 0 0a9 9 0 010 2v1a4 4 0 010-1zm-1-2s0 1 0 0v-1a9 9 0 010 1c0 1 0 1 0 0zm0 2c0-1 0 0 0 0a2 2 0 010 1 6 6 0 010-1zm-1-5v1a1 1 0 010-1zm0 3a4 4 0 010-1v1a16 16 0 010 3v-2zm-1 1l1 1-1-1zm0 5v-1 1a9 9 0 010 1v-1zm-20 18c0-1 0 0 0 0h1zm-3-14v2a3 3 0 010-2zm0-1h0zm3 6v-1 1a7 7 0 010 3l-1-1v-1l-1-1h1v1h1v-2zm-1 3v2l1-1-1 1-1 2 1-2v-3zm2 0v1a2 2 0 010-1v-2-1a3 3 0 011 2l-1 1zm0 3v-1 1zm6-6l-1 1 1-1zm-9-8l1-2v-1-1l1-1 1-1v-1c1 0 0 0 0 0v1a3 3 0 000 1v2h-1c-1 1 0 2 1 2v-1s1-1 1 1v1l-1-1 1 3a15 15 0 010 2 8 8 0 010 2l-1 1-1-2v1l-2-1h1v-1-1l-1-2-1-1 1 1h1l-1-2zm-1-5l-1 2v0a3 3 0 010-1l1-1zm-2-2a2 2 0 011 1v1l-1 1v2a3 3 0 010-1v-2-2zm-1 4a1 1 0 010-1h1v-1 1a3 3 0 010 1h-1zm1 3v0h1v2c-1 1 0-1 0 0l-1 1a3 3 0 010-1l-1-1 1-1zm-3 6v-1 1zm-1-3l1 1h-1a1 1 0 010-1zm-1 1l-1 1 1-1zm-1-5a3 3 0 010 1v1l-1-1c0-1 0 1 0 0l1-1zm0 7l-1-2 1 2zm-14-3v1a3 3 0 010-1zm0 4h-1v-1l1 1zm8 5c0-1 0-1 0 0zm-33-20v0zm-1 1v-2a5 5 0 010-1v1a9 9 0 010 2v1a4 4 0 010-1zm-1-2s0 1 0 0v-1a9 9 0 010 1c0 1 0 1 0 0zm0 2c0-1 0 0 0 0a3 3 0 010 1 6 6 0 010-1zm-1-1v-1a4 4 0 010-1v1a16 16 0 010 3v-2zm0 0v1l-1-1zm-1 6l1-2-1 1a7 7 0 010 1zm-3-6s0 1 0 0l1-1a7 7 0 010 2l-1-1zm0 2h1c1 0 0 0 0 0a3 3 0 010 1h-1v1a6 6 0 010-2zm-1-4c0-1 0-1 0 0zm0 3v-1a4 4 0 010-1h1l-1 1a16 16 0 010 3v-2zm0 1c0 1 0 0 0 0 0-1 0 0 0 0zm0 5v-2 1a7 7 0 010 1zm-6-19c0 1 0 1 0 0zm1 5v0zm0 0s0 1 0 0zm1-4a2 2 0 010-1 1 1 0 010 1s0-1 0 0c0 0 0-1 0 0a2 2 0 01-1-1v1zm-1-2a5 5 0 010 2 4 4 0 010-2zm0 1zm0 3v0zm0-2v-1 1zm-1 2l1-1a2 2 0 010 1h-1c0-1 0 0 0 0zm0 2a3 3 0 010-1v1zm0-6v1a2 2 0 010-1zm0 3l-1 1 1-1zm-1-1a1 1 0 010 1v-1c0-1 0 0 0 0zm0 2zm-1-3l1 1-1-1zm-1 2s0 1 0 0zm-32 12c0-1 0-1 0 0v1a6 6 0 010-1zm-1-1v0zm-1 5l1-1h-1a9 9 0 010 1c0 1 0 0 0 0zm-2-3c0-1 0 0 0 0v-2a5 5 0 010-1v1h1a9 9 0 01-1 2s0 1 0 0zm-1-2l1-1a9 9 0 010 1h-1zm0 2h1c1 1 0 0 0 0h-1v1a6 6 0 010-1zm-1-5h1v1h-1a1 1 0 010-1zm0 3a4 4 0 011-1s0-1 0 0v1a16 16 0 01-1 3v-3zm0 1v0zm0 5v-1a9 9 0 010 1c0 1 0 1 0 0zm-6-6v-1a2 2 0 010 2v-1zm-1 1a1 1 0 010 1v-1zm0 0l-1-1 1 1zm-1-3v-1a7 7 0 010 2v-1zm-1 0v0zm-1 1l1-2-1 2zm-1 4c0-1 0 0 0 0v3a10 10 0 010-3zm-2-6v-1 2h-1c0-2 1-1 1-1zm-1 7h-1 1zm-1 0a6 6 0 010 1v-1zm-4 0v1a6 6 0 010-1zm-1-3v1s0-1 0 0v-1zm0 4a9 9 0 010 1h1v-1a8 8 0 01-1 3v-1-1-1zm0 3v0zm-2 1c0-1 0 0 0 0v-2a5 5 0 011-1v1c0 1 0 0 0 0a9 9 0 010 2l-1 1a3 3 0 010-1zm0-2s0 1 0 0v-1a7 7 0 010 1c0 1 0 1 0 0zm0 2c0-1 0 0 0 0a3 3 0 010 1 6 6 0 010-1zm-1-2a4 4 0 010-1v1a16 16 0 01-1 3l1-3zm-1 1v0zm0 5v-1 1a9 9 0 010 1v-1zm-2-3v-1a5 5 0 010-2v1a9 9 0 010 2v1a4 4 0 010-1zm-1-2s0 1 0 0v-1a9 9 0 010 2v-1zm0 2c0-1 0 0 0 0a3 3 0 010 1v1a6 6 0 010-2zm-1-5v1a1 1 0 010-1zm0 4v-1a4 4 0 010-1v1a16 16 0 010 3v-2zm0 0v0zm-1 6l1-2-1 1a10 10 0 010 1zm-4-14s0 1 0 0zm-30 31l-1 1 1-1zm-8 3v2l1-1-1 1-1 2 1-2v-3zm2 2v1-1zm0-2v-2-1a3 3 0 011 2l-1 1v1a2 2 0 010-1zm0 6h-1 1zm-2-9l1 1c1 0 0 0 0 0v-1-1 1a7 7 0 010 3l-1-1h1l-1-1v-1h-1 1zm-9-4l-1 1 1-1zm-1 2l-1-2 1 2zm-6 6s0 1 0 0zm-8-9v1a3 3 0 010-1zm0 5l-1-1v-1l1 1zm-6-33l1-1-1 1zm0 1c0-1 0-1 0 0 0 0 0-1 0 0v1a6 6 0 010-1zm-1 3h1l-1 3a9 9 0 010-3zm0-4v1l-1-1h1zm0 4h-1a10 10 0 010 1c0 1 0 0 0 0l1-1zm-10-1v0zm7 2h-1 1zm-2-5a4 4 0 011-1s0-1 0 0v1a16 16 0 01-1 3v-3zm0 1v0zm0 5v-1a9 9 0 010 1c0 1 0 0 0 0zm-5-6h-1l1-1-1-1 1 2zm-2-4v3a4 4 0 010-2v-1zm-9 1v-2a6 6 0 010 2l-1 1 1-1zm-2 1l1-2a12 12 0 010 3c0 1-1 1-1-1 0-1 0 1 0 0zm-2-3l1 1v3-3s0 3-1 2a8 8 0 010-3zm0 1l-1-1 1 1zm-1 2l1 1c0 2-1 0-1-1h1zm-5 4l1 3-1-3zm-8 6l-1-1 1 1zm-1 6v1c0 1 0 1 0 0v-1zm-6-14c-1 0-1 3-1 1l1-1zm-12-2c0-1 0 0 0 0a3 3 0 010 1 6 6 0 010-1zm-1-2a4 4 0 010-1v1a16 16 0 01-1 3l1-3zm-1 1v0zm0 5v-1 1a10 10 0 010 1v-1zm-1 7v2a3 3 0 010-2zm-1-10v-1a5 5 0 010-2v1a9 9 0 010 2v1a4 4 0 010-1zm-1-2s0 1 0 0v-1a9 9 0 010 2v-1zm0 2c0-1 0 0 0 0a3 3 0 010 1v1a6 6 0 010-2zm-1-5v1a1 1 0 010-1zm0 4v-1a4 4 0 010-1v1a17 17 0 010 3v-2zm0 0v0zm0 4v1a9 9 0 01-1 1l1-2zm-27-14s0-1 0 0v0zm-2 7a6 6 0 010 1c0 1 0 1 0 0v-1zm-4 0h1l-1 1a6 6 0 010-1zm0-2v1h-1l1-1zm0 3v0a9 9 0 010 1c0 1 0 0 0 0v-1a8 8 0 010 3v-1l-1 1 1-2h-1a2 2 0 010 1v-1l1-1zm-1 4v0zm-1 0v-1a5 5 0 010-1v1s0-1 0 0a9 9 0 010 1v1a4 4 0 010-1zm-1-1c0-1 0 0 0 0v-1a9 9 0 010 1zm0 1v2a6 6 0 010-2zm-1-1v-1a4 4 0 010-1v1a17 17 0 010 3v-2zm0 1h-1 1zm-1 5l1-1h-1a9 9 0 010 1zm-2-4v-1a5 5 0 010-1v1h1a9 9 0 01-1 1v1a4 4 0 010-1zm-1-1c0-1 0 0 0 0l1-1a9 9 0 010 1h-1zm0 1l1 1c1 1 0-1 0 0h-1v1a6 6 0 010-2zm-1-4v0zm0 3a4 4 0 010-2h1l-1 1a16 16 0 010 4v-3zm0 1c0 1 0 0 0 0zm0 5v-1a9 9 0 010 1zm-14 8v0zm-9-4v1a3 3 0 010-1zm0-1c0-1 1-1 0 0zm2 5l1-1v2a7 7 0 01-1 2v-1-1l-1-1s0 1 0 0h1v1h1l-1-1zm2 3l-1 1a2 2 0 010-1l1-1v-1a3 3 0 010 2zm0 3h-1 1zm-1 4l-1-1h1v1zm-2-7l1 2h1l-2 1v-1-2zm0-11l1-1v-1-1s-1 0 0 0v-1l1-1v-2h1v1l-1 1a3 3 0 000 1h1v1h-1v2l1-1 1 1h-1v0 3a15 15 0 010 2 8 8 0 010 2l-1 1-1-2v1l-1-1h1v-2l-1 1v-2l-1-1h1v-1zm-1-5l-1 2-1 1v-1a3 3 0 011-1h1zm-2-1a2 2 0 010 1h1l-1 2-1 1a3 3 0 010-1l1-2v-1zm-1 3v-1-1l1 1a3 3 0 01-1 1c0 1 0 1 0 0zm0 4l1 1v-1-1l1 2h-1v1a3 3 0 01-1-1v-1zm-2 6l-1-2 1 2zm-1-3h1l-1 1a1 1 0 010-1zm-2 0v0zm0-5a3 3 0 010 2h-1l1-2zm-1 8v-2 1zm-5 5l-1 1 1-1zm-9-9l1 2v1l-1-1a3 3 0 010-2zm0 5v-1h-1l1 1zm-13 10l1-1-1 1z" fill-rule="evenodd"></path><path d="M699 42v-2a3 3 0 000-1l-1 1 1 2zM902 39c0 1 0 0 0 0h1a3 3 0 01-1 1l1 1 1 1v-1 1h1v-1-1-2 1s0-1 0 0h-1a6 6 0 011-1 2 2 0 00-1 0 4 4 0 00-1 0 2 2 0 000 1c0-1 0-1 0 0a1 1 0 010-1 3 3 0 00-1 1zm2 0s0 1 0 0zm0 1l-1-1 1 1zm-1-1v0zM829 40l1-2c1 0 0 0 0 0v-1-2a3 3 0 010-1c0-1 0 0 0 0v-1a1 1 0 01-1 1v1l-1-2a11 11 0 001 6v1zM736 30zM802 31zM736 30zM977 27zM977 25v0h-1l1 1v-1zM978 25c0-1 0 0 0 0zM938 40v-1 1zM928 35v0zM981 34v-1zM989 39v-1a5 5 0 000 1c0 1 0-1 0 0zM985 39zM906 42v1a2 2 0 000-1h1a3 3 0 00-1-1l-1-3v2l1 2zM926 36a1 1 0 000-1h-1l1 1zM909 49l1-1v-1 0a7 7 0 000-1l-1 2v1zM835 41zM912 43a2 2 0 000 1v-1zM916 39c0 1 0 0 0 0zM915 39a4 4 0 000 1 1 1 0 010-1zM593 34a1 1 0 000-1h-1v1h1zM604 39l1-1v-1 1l-1-1v2zM501 39zM579 42zM582 38zM595 33h-1v2l1-2zM648 32h-1zM652 37v1a1 1 0 000-1zM656 37h-1 1zM643 25zM643 24v-1 1a1 1 0 000-1v1-1 1zM645 24a5 5 0 000-1 1 1 0 010 1zM582 37v0zM469 29v0zM438 35v-1 0a7 7 0 000-1v2zM496 38v-1-2-2a3 3 0 010-1s0 1 0 0l-1 2v-2a11 11 0 001 5v1zM396 37l1-1v1a3 3 0 010-1 6 6 0 000-1l-1 2zM496 29c0-1 0-1 0 0v-1h-1a2 2 0 000 1h1zM403 28zM402 28zM365 40l1-2h-1v2zM576 47v-1 0a7 7 0 000-1v2zM499 38zM572 40v1h1a2 2 0 000-1 3 3 0 00-1-1v-3 4zM569 38v-1a4 4 0 010 1v1l1 1h1c1 1 0 0 0 0v0c0-1 0 0 0 0v-2-2 1c0 1 0 1 0 0a6 6 0 010-1 4 4 0 00-2 1h0v1zm2 0h-1 1zm-1 0v-1 1zm0-1v0zM569 38v-1 1z" fill-rule="evenodd"></path><path d="M568 39a1 1 0 001 0 1 1 0 000-1l-1 1 1-1h-1v1zM260 34a1 1 0 000-1h-1v1h1zM249 38zM262 33h-1v2l1-2zM249 37v0zM239 40v1h1a2 2 0 000-1 3 3 0 00-1-1v-3 1l-1 2 1 1zM243 47v-1 0a7 7 0 000-1v2zM245 42zM318 37v1a2 2 0 000-1zM323 37h-1 1zM314 32zM271 39v-1-1 1h1l-1-1v2zM310 25zM310 24v-1 1a1 1 0 000-1v1-1 1zM312 24a8 8 0 000-1h-1a1 1 0 011 1zM69 28zM105 35v-1 0a7 7 0 000-1v2zM168 39zM163 38v-1-2-2a3 3 0 010-1s0 1 0 0a1 1 0 00-1 0v0a11 11 0 000 5l1 1zM136 29l-1 1 1-1zM63 37v-1 1h1a3 3 0 010-1 7 7 0 000-1c-1-1-1 1-1 2zM32 40v-2a2 2 0 001 0h-1v2zM70 28h-1 1zM162 29h1v-1a3 3 0 00-1 0 2 2 0 000 1zM236 38c-1 0 0 0 0 0v-1a4 4 0 010 1v1l1 1s0-1 0 0h1v0c0-1 0 0 0 0v-2-2 1c0 1 0 1 0 0a6 6 0 010-1 2 2 0 00-1 0 4 4 0 00-1 1v1zm1 0zm0 0v-1 1zm0-1v0z" fill-rule="evenodd"></path><path d="M236 38v-1h-1l1 1zM235 39a1 1 0 001 0 1 1 0 00-1-1v1zM166 38z" fill-rule="evenodd"></path></g></svg>