<svg xmlns="http://www.w3.org/2000/svg" version="1.1" xmlns:xlink="http://www.w3.org/1999/xlink" xmlns:svgjs="http://svgjs.com/svgjs" width="1440" height="500" preserveAspectRatio="none" viewBox="0 0 1440 500"><g mask="url(&quot;#SvgjsMask1012&quot;)" fill="none"><path d="M-44.52 376.2L-44.52 376.2" stroke="rgba(6, 182, 212, 1)" stroke-width="1.5"></path><path d="M-44.52 376.2L-83.91 497.01" stroke="rgba(6, 182, 212, 1)" stroke-width="1.5"></path><path d="M-44.52 376.2L107.59 390.14" stroke="rgba(6, 182, 212, 1)" stroke-width="1.5"></path><path d="M-44.52 376.2L106.8 545.88" stroke="rgba(6, 182, 212, 1)" stroke-width="1.5"></path><path d="M-44.52 376.2L215.15 394.48" stroke="rgba(6, 182, 212, 1)" stroke-width="1.5"></path><path d="M-44.52 376.2L-52.47 674.25" stroke="rgba(6, 182, 212, 1)" stroke-width="1.5"></path><path d="M-83.91 497.01L-83.91 497.01" stroke="rgba(6, 182, 212, 1)" stroke-width="1.5"></path><path d="M-83.91 497.01L-52.47 674.25" stroke="rgba(6, 182, 212, 1)" stroke-width="1.5"></path><path d="M-83.91 497.01L106.8 545.88" stroke="rgba(6, 182, 212, 1)" stroke-width="1.5"></path><path d="M-83.91 497.01L107.59 390.14" stroke="rgba(6, 182, 212, 1)" stroke-width="1.5"></path><path d="M-83.91 497.01L98.81 640.54" stroke="rgba(6, 182, 212, 1)" stroke-width="1.5"></path><path d="M-83.91 497.01L211.19 533.22" stroke="rgba(6, 182, 212, 1)" stroke-width="1.5"></path><path d="M-52.47 674.25L-52.47 674.25" stroke="rgba(6, 182, 212, 1)" stroke-width="1.5"></path><path d="M-52.47 674.25L98.81 640.54" stroke="rgba(6, 182, 212, 1)" stroke-width="1.5"></path><path d="M107.59 390.14L107.59 390.14" stroke="rgba(6, 182, 212, 1)" stroke-width="1.5"></path><path d="M107.59 390.14L215.15 394.48" stroke="rgba(6, 182, 212, 1)" stroke-width="1.5"></path><path d="M107.59 390.14L106.8 545.88" stroke="rgba(6, 182, 212, 1)" stroke-width="1.5"></path><path d="M107.59 390.14L211.19 533.22" stroke="rgba(6, 182, 212, 1)" stroke-width="1.5"></path><path d="M107.59 390.14L98.81 640.54" stroke="rgba(6, 182, 212, 1)" stroke-width="1.5"></path><path d="M106.8 545.88L106.8 545.88" stroke="rgba(6, 182, 212, 1)" stroke-width="1.5"></path><path d="M106.8 545.88L98.81 640.54" stroke="rgba(6, 182, 212, 1)" stroke-width="1.5"></path><path d="M106.8 545.88L211.19 533.22" stroke="rgba(6, 182, 212, 1)" stroke-width="1.5"></path><path d="M106.8 545.88L238.3 644.27" stroke="rgba(6, 182, 212, 1)" stroke-width="1.5"></path><path d="M106.8 545.88L215.15 394.48" stroke="rgba(6, 182, 212, 1)" stroke-width="1.5"></path><path d="M98.81 640.54L98.81 640.54" stroke="rgba(6, 182, 212, 1)" stroke-width="1.5"></path><path d="M98.81 640.54L238.3 644.27" stroke="rgba(6, 182, 212, 1)" stroke-width="1.5"></path><path d="M215.15 394.48L215.15 394.48" stroke="rgba(6, 182, 212, 1)" stroke-width="1.5"></path><path d="M215.15 394.48L211.19 533.22" stroke="rgba(6, 182, 212, 1)" stroke-width="1.5"></path><path d="M211.19 533.22L211.19 533.22" stroke="rgba(6, 182, 212, 1)" stroke-width="1.5"></path><path d="M211.19 533.22L238.3 644.27" stroke="rgba(6, 182, 212, 1)" stroke-width="1.5"></path><path d="M211.19 533.22L341.41 523.82" stroke="rgba(6, 182, 212, 1)" stroke-width="1.5"></path><path d="M211.19 533.22L98.81 640.54" stroke="rgba(6, 182, 212, 1)" stroke-width="1.5"></path><path d="M238.3 644.27L238.3 644.27" stroke="rgba(6, 182, 212, 1)" stroke-width="1.5"></path><path d="M238.3 644.27L341.41 523.82" stroke="rgba(6, 182, 212, 1)" stroke-width="1.5"></path><path d="M238.3 644.27L397.32 646.82" stroke="rgba(6, 182, 212, 1)" stroke-width="1.5"></path><path d="M366.11 341.21L366.11 341.21" stroke="rgba(6, 182, 212, 1)" stroke-width="1.5"></path><path d="M366.11 341.21L516.85 344.8" stroke="rgba(6, 182, 212, 1)" stroke-width="1.5"></path><path d="M366.11 341.21L215.15 394.48" stroke="rgba(6, 182, 212, 1)" stroke-width="1.5"></path><path d="M366.11 341.21L341.41 523.82" stroke="rgba(6, 182, 212, 1)" stroke-width="1.5"></path><path d="M366.11 341.21L211.19 533.22" stroke="rgba(6, 182, 212, 1)" stroke-width="1.5"></path><path d="M366.11 341.21L107.59 390.14" stroke="rgba(6, 182, 212, 1)" stroke-width="1.5"></path><path d="M366.11 341.21L645.24 358.43" stroke="rgba(6, 182, 212, 1)" stroke-width="1.5"></path><path d="M341.41 523.82L341.41 523.82" stroke="rgba(6, 182, 212, 1)" stroke-width="1.5"></path><path d="M341.41 523.82L397.32 646.82" stroke="rgba(6, 182, 212, 1)" stroke-width="1.5"></path><path d="M341.41 523.82L215.15 394.48" stroke="rgba(6, 182, 212, 1)" stroke-width="1.5"></path><path d="M397.32 646.82L397.32 646.82" stroke="rgba(6, 182, 212, 1)" stroke-width="1.5"></path><path d="M397.32 646.82L508.34 702.17" stroke="rgba(6, 182, 212, 1)" stroke-width="1.5"></path><path d="M397.32 646.82L211.19 533.22" stroke="rgba(6, 182, 212, 1)" stroke-width="1.5"></path><path d="M397.32 646.82L641.62 536.26" stroke="rgba(6, 182, 212, 1)" stroke-width="1.5"></path><path d="M516.85 344.8L516.85 344.8" stroke="rgba(6, 182, 212, 1)" stroke-width="1.5"></path><path d="M516.85 344.8L645.24 358.43" stroke="rgba(6, 182, 212, 1)" stroke-width="1.5"></path><path d="M508.34 702.17L508.34 702.17" stroke="rgba(6, 182, 212, 1)" stroke-width="1.5"></path><path d="M508.34 702.17L696.63 659.32" stroke="rgba(6, 182, 212, 1)" stroke-width="1.5"></path><path d="M667.94 241.07L667.94 241.07" stroke="rgba(6, 182, 212, 1)" stroke-width="1.5"></path><path d="M667.94 241.07L645.24 358.43" stroke="rgba(6, 182, 212, 1)" stroke-width="1.5"></path><path d="M667.94 241.07L800.49 249.64" stroke="rgba(6, 182, 212, 1)" stroke-width="1.5"></path><path d="M667.94 241.07L516.85 344.8" stroke="rgba(6, 182, 212, 1)" stroke-width="1.5"></path><path d="M667.94 241.07L805.54 402.46" stroke="rgba(6, 182, 212, 1)" stroke-width="1.5"></path><path d="M667.94 241.07L641.62 536.26" stroke="rgba(6, 182, 212, 1)" stroke-width="1.5"></path><path d="M645.24 358.43L645.24 358.43" stroke="rgba(6, 182, 212, 1)" stroke-width="1.5"></path><path d="M645.24 358.43L805.54 402.46" stroke="rgba(6, 182, 212, 1)" stroke-width="1.5"></path><path d="M645.24 358.43L641.62 536.26" stroke="rgba(6, 182, 212, 1)" stroke-width="1.5"></path><path d="M645.24 358.43L800.49 249.64" stroke="rgba(6, 182, 212, 1)" stroke-width="1.5"></path><path d="M641.62 536.26L641.62 536.26" stroke="rgba(6, 182, 212, 1)" stroke-width="1.5"></path><path d="M641.62 536.26L696.63 659.32" stroke="rgba(6, 182, 212, 1)" stroke-width="1.5"></path><path d="M641.62 536.26L805.54 402.46" stroke="rgba(6, 182, 212, 1)" stroke-width="1.5"></path><path d="M696.63 659.32L696.63 659.32" stroke="rgba(6, 182, 212, 1)" stroke-width="1.5"></path><path d="M696.63 659.32L833.51 662.09" stroke="rgba(6, 182, 212, 1)" stroke-width="1.5"></path><path d="M696.63 659.32L805.54 402.46" stroke="rgba(6, 182, 212, 1)" stroke-width="1.5"></path><path d="M696.63 659.32L983.64 670.39" stroke="rgba(6, 182, 212, 1)" stroke-width="1.5"></path><path d="M800.49 249.64L800.49 249.64" stroke="rgba(6, 182, 212, 1)" stroke-width="1.5"></path><path d="M800.49 249.64L805.54 402.46" stroke="rgba(6, 182, 212, 1)" stroke-width="1.5"></path><path d="M800.49 249.64L981.82 200.23" stroke="rgba(6, 182, 212, 1)" stroke-width="1.5"></path><path d="M800.49 249.64L956.89 360.71" stroke="rgba(6, 182, 212, 1)" stroke-width="1.5"></path><path d="M805.54 402.46L805.54 402.46" stroke="rgba(6, 182, 212, 1)" stroke-width="1.5"></path><path d="M805.54 402.46L956.89 360.71" stroke="rgba(6, 182, 212, 1)" stroke-width="1.5"></path><path d="M833.51 662.09L833.51 662.09" stroke="rgba(6, 182, 212, 1)" stroke-width="1.5"></path><path d="M833.51 662.09L983.64 670.39" stroke="rgba(6, 182, 212, 1)" stroke-width="1.5"></path><path d="M833.51 662.09L641.62 536.26" stroke="rgba(6, 182, 212, 1)" stroke-width="1.5"></path><path d="M833.51 662.09L1008.27 488.52" stroke="rgba(6, 182, 212, 1)" stroke-width="1.5"></path><path d="M833.51 662.09L805.54 402.46" stroke="rgba(6, 182, 212, 1)" stroke-width="1.5"></path><path d="M833.51 662.09L1146.88 652.57" stroke="rgba(6, 182, 212, 1)" stroke-width="1.5"></path><path d="M967.83 -96.78L967.83 -96.78" stroke="rgba(6, 182, 212, 1)" stroke-width="1.5"></path><path d="M967.83 -96.78L967.81 51.89" stroke="rgba(6, 182, 212, 1)" stroke-width="1.5"></path><path d="M967.83 -96.78L1109.01 -39.31" stroke="rgba(6, 182, 212, 1)" stroke-width="1.5"></path><path d="M967.83 -96.78L1112.37 54.58" stroke="rgba(6, 182, 212, 1)" stroke-width="1.5"></path><path d="M967.81 51.89L967.81 51.89" stroke="rgba(6, 182, 212, 1)" stroke-width="1.5"></path><path d="M967.81 51.89L1112.37 54.58" stroke="rgba(6, 182, 212, 1)" stroke-width="1.5"></path><path d="M967.81 51.89L981.82 200.23" stroke="rgba(6, 182, 212, 1)" stroke-width="1.5"></path><path d="M967.81 51.89L1109.01 -39.31" stroke="rgba(6, 182, 212, 1)" stroke-width="1.5"></path><path d="M967.81 51.89L800.49 249.64" stroke="rgba(6, 182, 212, 1)" stroke-width="1.5"></path><path d="M967.81 51.89L1145.11 251.62" stroke="rgba(6, 182, 212, 1)" stroke-width="1.5"></path><path d="M981.82 200.23L981.82 200.23" stroke="rgba(6, 182, 212, 1)" stroke-width="1.5"></path><path d="M981.82 200.23L956.89 360.71" stroke="rgba(6, 182, 212, 1)" stroke-width="1.5"></path><path d="M981.82 200.23L1145.11 251.62" stroke="rgba(6, 182, 212, 1)" stroke-width="1.5"></path><path d="M981.82 200.23L1112.37 54.58" stroke="rgba(6, 182, 212, 1)" stroke-width="1.5"></path><path d="M981.82 200.23L1114.38 400.53" stroke="rgba(6, 182, 212, 1)" stroke-width="1.5"></path><path d="M956.89 360.71L956.89 360.71" stroke="rgba(6, 182, 212, 1)" stroke-width="1.5"></path><path d="M956.89 360.71L1008.27 488.52" stroke="rgba(6, 182, 212, 1)" stroke-width="1.5"></path><path d="M1008.27 488.52L1008.27 488.52" stroke="rgba(6, 182, 212, 1)" stroke-width="1.5"></path><path d="M1008.27 488.52L1120.65 515.19" stroke="rgba(6, 182, 212, 1)" stroke-width="1.5"></path><path d="M1008.27 488.52L1114.38 400.53" stroke="rgba(6, 182, 212, 1)" stroke-width="1.5"></path><path d="M1008.27 488.52L983.64 670.39" stroke="rgba(6, 182, 212, 1)" stroke-width="1.5"></path><path d="M1008.27 488.52L1146.88 652.57" stroke="rgba(6, 182, 212, 1)" stroke-width="1.5"></path><path d="M983.64 670.39L983.64 670.39" stroke="rgba(6, 182, 212, 1)" stroke-width="1.5"></path><path d="M983.64 670.39L1146.88 652.57" stroke="rgba(6, 182, 212, 1)" stroke-width="1.5"></path><path d="M983.64 670.39L1120.65 515.19" stroke="rgba(6, 182, 212, 1)" stroke-width="1.5"></path><path d="M1109.01 -39.31L1109.01 -39.31" stroke="rgba(6, 182, 212, 1)" stroke-width="1.5"></path><path d="M1109.01 -39.31L1112.37 54.58" stroke="rgba(6, 182, 212, 1)" stroke-width="1.5"></path><path d="M1112.37 54.58L1112.37 54.58" stroke="rgba(6, 182, 212, 1)" stroke-width="1.5"></path><path d="M1112.37 54.58L1145.11 251.62" stroke="rgba(6, 182, 212, 1)" stroke-width="1.5"></path><path d="M1112.37 54.58L1281.87 -53.01" stroke="rgba(6, 182, 212, 1)" stroke-width="1.5"></path><path d="M1145.11 251.62L1145.11 251.62" stroke="rgba(6, 182, 212, 1)" stroke-width="1.5"></path><path d="M1145.11 251.62L1260.32 347.02" stroke="rgba(6, 182, 212, 1)" stroke-width="1.5"></path><path d="M1145.11 251.62L1114.38 400.53" stroke="rgba(6, 182, 212, 1)" stroke-width="1.5"></path><path d="M1145.11 251.62L1307 217.71" stroke="rgba(6, 182, 212, 1)" stroke-width="1.5"></path><path d="M1114.38 400.53L1114.38 400.53" stroke="rgba(6, 182, 212, 1)" stroke-width="1.5"></path><path d="M1114.38 400.53L1120.65 515.19" stroke="rgba(6, 182, 212, 1)" stroke-width="1.5"></path><path d="M1114.38 400.53L1260.32 347.02" stroke="rgba(6, 182, 212, 1)" stroke-width="1.5"></path><path d="M1114.38 400.53L956.89 360.71" stroke="rgba(6, 182, 212, 1)" stroke-width="1.5"></path><path d="M1114.38 400.53L1241.61 521.74" stroke="rgba(6, 182, 212, 1)" stroke-width="1.5"></path><path d="M1120.65 515.19L1120.65 515.19" stroke="rgba(6, 182, 212, 1)" stroke-width="1.5"></path><path d="M1146.88 652.57L1146.88 652.57" stroke="rgba(6, 182, 212, 1)" stroke-width="1.5"></path><path d="M1146.88 652.57L1240.09 671.78" stroke="rgba(6, 182, 212, 1)" stroke-width="1.5"></path><path d="M1146.88 652.57L1120.65 515.19" stroke="rgba(6, 182, 212, 1)" stroke-width="1.5"></path><path d="M1281.87 -53.01L1281.87 -53.01" stroke="rgba(6, 182, 212, 1)" stroke-width="1.5"></path><path d="M1281.87 -53.01L1413.31 40.61" stroke="rgba(6, 182, 212, 1)" stroke-width="1.5"></path><path d="M1281.87 -53.01L1449.83 -60.59" stroke="rgba(6, 182, 212, 1)" stroke-width="1.5"></path><path d="M1281.87 -53.01L1109.01 -39.31" stroke="rgba(6, 182, 212, 1)" stroke-width="1.5"></path><path d="M1307 217.71L1307 217.71" stroke="rgba(6, 182, 212, 1)" stroke-width="1.5"></path><path d="M1307 217.71L1404.2 215.05" stroke="rgba(6, 182, 212, 1)" stroke-width="1.5"></path><path d="M1307 217.71L1260.32 347.02" stroke="rgba(6, 182, 212, 1)" stroke-width="1.5"></path><path d="M1307 217.71L1413.31 40.61" stroke="rgba(6, 182, 212, 1)" stroke-width="1.5"></path><path d="M1307 217.71L1453.58 402" stroke="rgba(6, 182, 212, 1)" stroke-width="1.5"></path><path d="M1260.32 347.02L1260.32 347.02" stroke="rgba(6, 182, 212, 1)" stroke-width="1.5"></path><path d="M1260.32 347.02L1241.61 521.74" stroke="rgba(6, 182, 212, 1)" stroke-width="1.5"></path><path d="M1260.32 347.02L1404.2 215.05" stroke="rgba(6, 182, 212, 1)" stroke-width="1.5"></path><path d="M1241.61 521.74L1241.61 521.74" stroke="rgba(6, 182, 212, 1)" stroke-width="1.5"></path><path d="M1241.61 521.74L1120.65 515.19" stroke="rgba(6, 182, 212, 1)" stroke-width="1.5"></path><path d="M1240.09 671.78L1240.09 671.78" stroke="rgba(6, 182, 212, 1)" stroke-width="1.5"></path><path d="M1240.09 671.78L1241.61 521.74" stroke="rgba(6, 182, 212, 1)" stroke-width="1.5"></path><path d="M1240.09 671.78L1434.7 685.31" stroke="rgba(6, 182, 212, 1)" stroke-width="1.5"></path><path d="M1240.09 671.78L1120.65 515.19" stroke="rgba(6, 182, 212, 1)" stroke-width="1.5"></path><path d="M1449.83 -60.59L1449.83 -60.59" stroke="rgba(6, 182, 212, 1)" stroke-width="1.5"></path><path d="M1449.83 -60.59L1413.31 40.61" stroke="rgba(6, 182, 212, 1)" stroke-width="1.5"></path><path d="M1449.83 -60.59L1565.72 -50.98" stroke="rgba(6, 182, 212, 1)" stroke-width="1.5"></path><path d="M1449.83 -60.59L1550.6 48.62" stroke="rgba(6, 182, 212, 1)" stroke-width="1.5"></path><path d="M1413.31 40.61L1413.31 40.61" stroke="rgba(6, 182, 212, 1)" stroke-width="1.5"></path><path d="M1413.31 40.61L1550.6 48.62" stroke="rgba(6, 182, 212, 1)" stroke-width="1.5"></path><path d="M1413.31 40.61L1404.2 215.05" stroke="rgba(6, 182, 212, 1)" stroke-width="1.5"></path><path d="M1413.31 40.61L1565.72 -50.98" stroke="rgba(6, 182, 212, 1)" stroke-width="1.5"></path><path d="M1404.2 215.05L1404.2 215.05" stroke="rgba(6, 182, 212, 1)" stroke-width="1.5"></path><path d="M1404.2 215.05L1566.35 231" stroke="rgba(6, 182, 212, 1)" stroke-width="1.5"></path><path d="M1404.2 215.05L1453.58 402" stroke="rgba(6, 182, 212, 1)" stroke-width="1.5"></path><path d="M1453.58 402L1453.58 402" stroke="rgba(6, 182, 212, 1)" stroke-width="1.5"></path><path d="M1453.58 402L1568.11 403.73" stroke="rgba(6, 182, 212, 1)" stroke-width="1.5"></path><path d="M1453.58 402L1396.47 541.27" stroke="rgba(6, 182, 212, 1)" stroke-width="1.5"></path><path d="M1453.58 402L1550.78 518.59" stroke="rgba(6, 182, 212, 1)" stroke-width="1.5"></path><path d="M1453.58 402L1260.32 347.02" stroke="rgba(6, 182, 212, 1)" stroke-width="1.5"></path><path d="M1453.58 402L1566.35 231" stroke="rgba(6, 182, 212, 1)" stroke-width="1.5"></path><path d="M1396.47 541.27L1396.47 541.27" stroke="rgba(6, 182, 212, 1)" stroke-width="1.5"></path><path d="M1396.47 541.27L1434.7 685.31" stroke="rgba(6, 182, 212, 1)" stroke-width="1.5"></path><path d="M1396.47 541.27L1550.78 518.59" stroke="rgba(6, 182, 212, 1)" stroke-width="1.5"></path><path d="M1396.47 541.27L1241.61 521.74" stroke="rgba(6, 182, 212, 1)" stroke-width="1.5"></path><path d="M1396.47 541.27L1552.79 662.57" stroke="rgba(6, 182, 212, 1)" stroke-width="1.5"></path><path d="M1396.47 541.27L1240.09 671.78" stroke="rgba(6, 182, 212, 1)" stroke-width="1.5"></path><path d="M1434.7 685.31L1434.7 685.31" stroke="rgba(6, 182, 212, 1)" stroke-width="1.5"></path><path d="M1434.7 685.31L1552.79 662.57" stroke="rgba(6, 182, 212, 1)" stroke-width="1.5"></path><path d="M1565.72 -50.98L1565.72 -50.98" stroke="rgba(6, 182, 212, 1)" stroke-width="1.5"></path><path d="M1565.72 -50.98L1550.6 48.62" stroke="rgba(6, 182, 212, 1)" stroke-width="1.5"></path><path d="M1565.72 -50.98L1566.35 231" stroke="rgba(6, 182, 212, 1)" stroke-width="1.5"></path><path d="M1565.72 -50.98L1281.87 -53.01" stroke="rgba(6, 182, 212, 1)" stroke-width="1.5"></path><path d="M1565.72 -50.98L1404.2 215.05" stroke="rgba(6, 182, 212, 1)" stroke-width="1.5"></path><path d="M1550.6 48.62L1550.6 48.62" stroke="rgba(6, 182, 212, 1)" stroke-width="1.5"></path><path d="M1550.6 48.62L1566.35 231" stroke="rgba(6, 182, 212, 1)" stroke-width="1.5"></path><path d="M1550.6 48.62L1404.2 215.05" stroke="rgba(6, 182, 212, 1)" stroke-width="1.5"></path><path d="M1550.6 48.62L1281.87 -53.01" stroke="rgba(6, 182, 212, 1)" stroke-width="1.5"></path><path d="M1566.35 231L1566.35 231" stroke="rgba(6, 182, 212, 1)" stroke-width="1.5"></path><path d="M1566.35 231L1568.11 403.73" stroke="rgba(6, 182, 212, 1)" stroke-width="1.5"></path><path d="M1568.11 403.73L1568.11 403.73" stroke="rgba(6, 182, 212, 1)" stroke-width="1.5"></path><path d="M1550.78 518.59L1550.78 518.59" stroke="rgba(6, 182, 212, 1)" stroke-width="1.5"></path><path d="M1550.78 518.59L1568.11 403.73" stroke="rgba(6, 182, 212, 1)" stroke-width="1.5"></path><path d="M1550.78 518.59L1552.79 662.57" stroke="rgba(6, 182, 212, 1)" stroke-width="1.5"></path><path d="M1550.78 518.59L1434.7 685.31" stroke="rgba(6, 182, 212, 1)" stroke-width="1.5"></path><path d="M1552.79 662.57L1552.79 662.57" stroke="rgba(6, 182, 212, 1)" stroke-width="1.5"></path><circle r="5" cx="-44.52" cy="376.2" fill="rgba(6, 182, 212, 1)"></circle><circle r="5" cx="-83.91" cy="497.01" fill="rgba(6, 182, 212, 1)"></circle><circle r="5" cx="-52.47" cy="674.25" fill="rgba(6, 182, 212, 1)"></circle><circle r="5" cx="107.59" cy="390.14" fill="rgba(6, 182, 212, 1)"></circle><circle r="5" cx="106.8" cy="545.88" fill="rgba(6, 182, 212, 1)"></circle><circle r="5" cx="98.81" cy="640.54" fill="rgba(6, 182, 212, 1)"></circle><circle r="5" cx="215.15" cy="394.48" fill="rgba(6, 182, 212, 1)"></circle><circle r="5" cx="211.19" cy="533.22" fill="rgba(6, 182, 212, 1)"></circle><circle r="5" cx="238.3" cy="644.27" fill="rgba(6, 182, 212, 1)"></circle><circle r="5" cx="366.11" cy="341.21" fill="rgba(6, 182, 212, 1)"></circle><circle r="5" cx="341.41" cy="523.82" fill="rgba(6, 182, 212, 1)"></circle><circle r="5" cx="397.32" cy="646.82" fill="rgba(6, 182, 212, 1)"></circle><circle r="5" cx="516.85" cy="344.8" fill="rgba(6, 182, 212, 1)"></circle><circle r="5" cx="508.34" cy="702.17" fill="rgba(6, 182, 212, 1)"></circle><circle r="5" cx="667.94" cy="241.07" fill="rgba(6, 182, 212, 1)"></circle><circle r="5" cx="645.24" cy="358.43" fill="rgba(6, 182, 212, 1)"></circle><circle r="5" cx="641.62" cy="536.26" fill="rgba(6, 182, 212, 1)"></circle><circle r="5" cx="696.63" cy="659.32" fill="rgba(6, 182, 212, 1)"></circle><circle r="5" cx="800.49" cy="249.64" fill="rgba(6, 182, 212, 1)"></circle><circle r="5" cx="805.54" cy="402.46" fill="rgba(6, 182, 212, 1)"></circle><circle r="5" cx="833.51" cy="662.09" fill="rgba(6, 182, 212, 1)"></circle><circle r="5" cx="967.83" cy="-96.78" fill="rgba(6, 182, 212, 1)"></circle><circle r="5" cx="967.81" cy="51.89" fill="rgba(6, 182, 212, 1)"></circle><circle r="5" cx="981.82" cy="200.23" fill="rgba(6, 182, 212, 1)"></circle><circle r="5" cx="956.89" cy="360.71" fill="rgba(6, 182, 212, 1)"></circle><circle r="5" cx="1008.27" cy="488.52" fill="rgba(6, 182, 212, 1)"></circle><circle r="5" cx="983.64" cy="670.39" fill="rgba(6, 182, 212, 1)"></circle><circle r="5" cx="1109.01" cy="-39.31" fill="rgba(6, 182, 212, 1)"></circle><circle r="5" cx="1112.37" cy="54.58" fill="rgba(6, 182, 212, 1)"></circle><circle r="5" cx="1145.11" cy="251.62" fill="rgba(6, 182, 212, 1)"></circle><circle r="5" cx="1114.38" cy="400.53" fill="rgba(6, 182, 212, 1)"></circle><circle r="5" cx="1120.65" cy="515.19" fill="rgba(6, 182, 212, 1)"></circle><circle r="5" cx="1146.88" cy="652.57" fill="rgba(6, 182, 212, 1)"></circle><circle r="5" cx="1281.87" cy="-53.01" fill="rgba(6, 182, 212, 1)"></circle><circle r="5" cx="1307" cy="217.71" fill="rgba(6, 182, 212, 1)"></circle><circle r="5" cx="1260.32" cy="347.02" fill="rgba(6, 182, 212, 1)"></circle><circle r="5" cx="1241.61" cy="521.74" fill="rgba(6, 182, 212, 1)"></circle><circle r="5" cx="1240.09" cy="671.78" fill="rgba(6, 182, 212, 1)"></circle><circle r="5" cx="1449.83" cy="-60.59" fill="rgba(6, 182, 212, 1)"></circle><circle r="5" cx="1413.31" cy="40.61" fill="rgba(6, 182, 212, 1)"></circle><circle r="5" cx="1404.2" cy="215.05" fill="rgba(6, 182, 212, 1)"></circle><circle r="5" cx="1453.58" cy="402" fill="rgba(6, 182, 212, 1)"></circle><circle r="5" cx="1396.47" cy="541.27" fill="rgba(6, 182, 212, 1)"></circle><circle r="5" cx="1434.7" cy="685.31" fill="rgba(6, 182, 212, 1)"></circle><circle r="5" cx="1565.72" cy="-50.98" fill="rgba(6, 182, 212, 1)"></circle><circle r="5" cx="1550.6" cy="48.62" fill="rgba(6, 182, 212, 1)"></circle><circle r="5" cx="1566.35" cy="231" fill="rgba(6, 182, 212, 1)"></circle><circle r="5" cx="1568.11" cy="403.73" fill="rgba(6, 182, 212, 1)"></circle><circle r="5" cx="1550.78" cy="518.59" fill="rgba(6, 182, 212, 1)"></circle><circle r="5" cx="1552.79" cy="662.57" fill="rgba(6, 182, 212, 1)"></circle><path d="M81.59 547.58L81.59 547.58" stroke="hsl(188.70000000000005, 94.5%, 55.6%)" stroke-width="1.5"></path><path d="M81.59 547.58L206.15 534.54" stroke="hsl(188.70000000000005, 94.5%, 55.6%)" stroke-width="1.5"></path><path d="M81.59 547.58L59.1 688.61" stroke="hsl(188.70000000000005, 94.5%, 55.6%)" stroke-width="1.5"></path><path d="M81.59 547.58L-74.16 497.16" stroke="hsl(188.70000000000005, 94.5%, 55.6%)" stroke-width="1.5"></path><path d="M385.46 657.8L385.46 657.8" stroke="hsl(188.70000000000005, 94.5%, 55.6%)" stroke-width="1.5"></path><path d="M385.46 657.8L388.56 540.86" stroke="hsl(188.70000000000005, 94.5%, 55.6%)" stroke-width="1.5"></path><path d="M385.46 657.8L517.13 541.23" stroke="hsl(188.70000000000005, 94.5%, 55.6%)" stroke-width="1.5"></path><path d="M385.46 657.8L206.15 534.54" stroke="hsl(188.70000000000005, 94.5%, 55.6%)" stroke-width="1.5"></path><path d="M554.95 397.55L554.95 397.55" stroke="hsl(188.70000000000005, 94.5%, 55.6%)" stroke-width="1.5"></path><path d="M554.95 397.55L643.18 372.35" stroke="hsl(188.70000000000005, 94.5%, 55.6%)" stroke-width="1.5"></path><path d="M554.95 397.55L517.13 541.23" stroke="hsl(188.70000000000005, 94.5%, 55.6%)" stroke-width="1.5"></path><path d="M554.95 397.55L402.49 407.08" stroke="hsl(188.70000000000005, 94.5%, 55.6%)" stroke-width="1.5"></path><path d="M554.95 397.55L692.38 490.62" stroke="hsl(188.70000000000005, 94.5%, 55.6%)" stroke-width="1.5"></path><path d="M517.13 541.23L517.13 541.23" stroke="hsl(188.70000000000005, 94.5%, 55.6%)" stroke-width="1.5"></path><path d="M517.13 541.23L388.56 540.86" stroke="hsl(188.70000000000005, 94.5%, 55.6%)" stroke-width="1.5"></path><path d="M517.13 541.23L402.49 407.08" stroke="hsl(188.70000000000005, 94.5%, 55.6%)" stroke-width="1.5"></path><path d="M517.13 541.23L692.38 490.62" stroke="hsl(188.70000000000005, 94.5%, 55.6%)" stroke-width="1.5"></path><path d="M517.13 541.23L684.82 664.67" stroke="hsl(188.70000000000005, 94.5%, 55.6%)" stroke-width="1.5"></path><path d="M847.22 350.36L847.22 350.36" stroke="hsl(188.70000000000005, 94.5%, 55.6%)" stroke-width="1.5"></path><path d="M847.22 350.36L951.51 250.24" stroke="hsl(188.70000000000005, 94.5%, 55.6%)" stroke-width="1.5"></path><path d="M847.22 350.36L999.97 360.54" stroke="hsl(188.70000000000005, 94.5%, 55.6%)" stroke-width="1.5"></path><path d="M984.07 497.15L984.07 497.15" stroke="hsl(188.70000000000005, 94.5%, 55.6%)" stroke-width="1.5"></path><path d="M984.07 497.15L999.97 360.54" stroke="hsl(188.70000000000005, 94.5%, 55.6%)" stroke-width="1.5"></path><path d="M984.07 497.15L1152.62 504.23" stroke="hsl(188.70000000000005, 94.5%, 55.6%)" stroke-width="1.5"></path><path d="M984.07 497.15L808.66 553.67" stroke="hsl(188.70000000000005, 94.5%, 55.6%)" stroke-width="1.5"></path><path d="M1601.29 341.77L1601.29 341.77" stroke="hsl(188.70000000000005, 94.5%, 55.6%)" stroke-width="1.5"></path><path d="M1601.29 341.77L1571.35 233.97" stroke="hsl(188.70000000000005, 94.5%, 55.6%)" stroke-width="1.5"></path><path d="M1601.29 341.77L1445.07 374.37" stroke="hsl(188.70000000000005, 94.5%, 55.6%)" stroke-width="1.5"></path><path d="M-74.16 497.16L-74.16 497.16" stroke="hsl(188.70000000000005, 94.5%, 55.6%)" stroke-width="1.5"></path><path d="M-74.16 497.16L-52.92 673.73" stroke="hsl(188.70000000000005, 94.5%, 55.6%)" stroke-width="1.5"></path><path d="M-74.16 497.16L59.1 688.61" stroke="hsl(188.70000000000005, 94.5%, 55.6%)" stroke-width="1.5"></path><path d="M-74.16 497.16L206.15 534.54" stroke="hsl(188.70000000000005, 94.5%, 55.6%)" stroke-width="1.5"></path><path d="M-74.16 497.16L388.56 540.86" stroke="hsl(188.70000000000005, 94.5%, 55.6%)" stroke-width="1.5"></path><path d="M-74.16 497.16L402.49 407.08" stroke="hsl(188.70000000000005, 94.5%, 55.6%)" stroke-width="1.5"></path><path d="M-52.92 673.73L-52.92 673.73" stroke="hsl(188.70000000000005, 94.5%, 55.6%)" stroke-width="1.5"></path><path d="M-52.92 673.73L59.1 688.61" stroke="hsl(188.70000000000005, 94.5%, 55.6%)" stroke-width="1.5"></path><path d="M-52.92 673.73L81.59 547.58" stroke="hsl(188.70000000000005, 94.5%, 55.6%)" stroke-width="1.5"></path><path d="M59.1 688.61L59.1 688.61" stroke="hsl(188.70000000000005, 94.5%, 55.6%)" stroke-width="1.5"></path><path d="M59.1 688.61L206.15 534.54" stroke="hsl(188.70000000000005, 94.5%, 55.6%)" stroke-width="1.5"></path><path d="M59.1 688.61L385.46 657.8" stroke="hsl(188.70000000000005, 94.5%, 55.6%)" stroke-width="1.5"></path><path d="M59.1 688.61L388.56 540.86" stroke="hsl(188.70000000000005, 94.5%, 55.6%)" stroke-width="1.5"></path><path d="M206.15 534.54L206.15 534.54" stroke="hsl(188.70000000000005, 94.5%, 55.6%)" stroke-width="1.5"></path><path d="M206.15 534.54L388.56 540.86" stroke="hsl(188.70000000000005, 94.5%, 55.6%)" stroke-width="1.5"></path><path d="M402.49 407.08L402.49 407.08" stroke="hsl(188.70000000000005, 94.5%, 55.6%)" stroke-width="1.5"></path><path d="M402.49 407.08L388.56 540.86" stroke="hsl(188.70000000000005, 94.5%, 55.6%)" stroke-width="1.5"></path><path d="M388.56 540.86L388.56 540.86" stroke="hsl(188.70000000000005, 94.5%, 55.6%)" stroke-width="1.5"></path><path d="M388.56 540.86L554.95 397.55" stroke="hsl(188.70000000000005, 94.5%, 55.6%)" stroke-width="1.5"></path><path d="M388.56 540.86L643.18 372.35" stroke="hsl(188.70000000000005, 94.5%, 55.6%)" stroke-width="1.5"></path><path d="M643.18 372.35L643.18 372.35" stroke="hsl(188.70000000000005, 94.5%, 55.6%)" stroke-width="1.5"></path><path d="M643.18 372.35L692.38 490.62" stroke="hsl(188.70000000000005, 94.5%, 55.6%)" stroke-width="1.5"></path><path d="M643.18 372.35L847.22 350.36" stroke="hsl(188.70000000000005, 94.5%, 55.6%)" stroke-width="1.5"></path><path d="M643.18 372.35L517.13 541.23" stroke="hsl(188.70000000000005, 94.5%, 55.6%)" stroke-width="1.5"></path><path d="M692.38 490.62L692.38 490.62" stroke="hsl(188.70000000000005, 94.5%, 55.6%)" stroke-width="1.5"></path><path d="M692.38 490.62L808.66 553.67" stroke="hsl(188.70000000000005, 94.5%, 55.6%)" stroke-width="1.5"></path><path d="M684.82 664.67L684.82 664.67" stroke="hsl(188.70000000000005, 94.5%, 55.6%)" stroke-width="1.5"></path><path d="M684.82 664.67L838.49 690.33" stroke="hsl(188.70000000000005, 94.5%, 55.6%)" stroke-width="1.5"></path><path d="M808.66 553.67L808.66 553.67" stroke="hsl(188.70000000000005, 94.5%, 55.6%)" stroke-width="1.5"></path><path d="M838.49 690.33L838.49 690.33" stroke="hsl(188.70000000000005, 94.5%, 55.6%)" stroke-width="1.5"></path><path d="M838.49 690.33L808.66 553.67" stroke="hsl(188.70000000000005, 94.5%, 55.6%)" stroke-width="1.5"></path><path d="M838.49 690.33L984.07 497.15" stroke="hsl(188.70000000000005, 94.5%, 55.6%)" stroke-width="1.5"></path><path d="M838.49 690.33L692.38 490.62" stroke="hsl(188.70000000000005, 94.5%, 55.6%)" stroke-width="1.5"></path><path d="M838.49 690.33L1111.18 655.12" stroke="hsl(188.70000000000005, 94.5%, 55.6%)" stroke-width="1.5"></path><path d="M951.51 250.24L951.51 250.24" stroke="hsl(188.70000000000005, 94.5%, 55.6%)" stroke-width="1.5"></path><path d="M951.51 250.24L999.97 360.54" stroke="hsl(188.70000000000005, 94.5%, 55.6%)" stroke-width="1.5"></path><path d="M951.51 250.24L1162.25 255.32" stroke="hsl(188.70000000000005, 94.5%, 55.6%)" stroke-width="1.5"></path><path d="M951.51 250.24L1142.4 386.81" stroke="hsl(188.70000000000005, 94.5%, 55.6%)" stroke-width="1.5"></path><path d="M951.51 250.24L984.07 497.15" stroke="hsl(188.70000000000005, 94.5%, 55.6%)" stroke-width="1.5"></path><path d="M999.97 360.54L999.97 360.54" stroke="hsl(188.70000000000005, 94.5%, 55.6%)" stroke-width="1.5"></path><path d="M999.97 360.54L1142.4 386.81" stroke="hsl(188.70000000000005, 94.5%, 55.6%)" stroke-width="1.5"></path><path d="M1162.25 255.32L1162.25 255.32" stroke="hsl(188.70000000000005, 94.5%, 55.6%)" stroke-width="1.5"></path><path d="M1162.25 255.32L1251.61 250.18" stroke="hsl(188.70000000000005, 94.5%, 55.6%)" stroke-width="1.5"></path><path d="M1162.25 255.32L1142.4 386.81" stroke="hsl(188.70000000000005, 94.5%, 55.6%)" stroke-width="1.5"></path><path d="M1162.25 255.32L1261.67 354.88" stroke="hsl(188.70000000000005, 94.5%, 55.6%)" stroke-width="1.5"></path><path d="M1162.25 255.32L999.97 360.54" stroke="hsl(188.70000000000005, 94.5%, 55.6%)" stroke-width="1.5"></path><path d="M1162.25 255.32L1299.79 102.98" stroke="hsl(188.70000000000005, 94.5%, 55.6%)" stroke-width="1.5"></path><path d="M1142.4 386.81L1142.4 386.81" stroke="hsl(188.70000000000005, 94.5%, 55.6%)" stroke-width="1.5"></path><path d="M1142.4 386.81L1152.62 504.23" stroke="hsl(188.70000000000005, 94.5%, 55.6%)" stroke-width="1.5"></path><path d="M1142.4 386.81L1261.67 354.88" stroke="hsl(188.70000000000005, 94.5%, 55.6%)" stroke-width="1.5"></path><path d="M1152.62 504.23L1152.62 504.23" stroke="hsl(188.70000000000005, 94.5%, 55.6%)" stroke-width="1.5"></path><path d="M1152.62 504.23L1248.18 495.83" stroke="hsl(188.70000000000005, 94.5%, 55.6%)" stroke-width="1.5"></path><path d="M1111.18 655.12L1111.18 655.12" stroke="hsl(188.70000000000005, 94.5%, 55.6%)" stroke-width="1.5"></path><path d="M1111.18 655.12L1152.62 504.23" stroke="hsl(188.70000000000005, 94.5%, 55.6%)" stroke-width="1.5"></path><path d="M1111.18 655.12L984.07 497.15" stroke="hsl(188.70000000000005, 94.5%, 55.6%)" stroke-width="1.5"></path><path d="M1247.27 -45.58L1247.27 -45.58" stroke="hsl(188.70000000000005, 94.5%, 55.6%)" stroke-width="1.5"></path><path d="M1247.27 -45.58L1299.79 102.98" stroke="hsl(188.70000000000005, 94.5%, 55.6%)" stroke-width="1.5"></path><path d="M1247.27 -45.58L1411.31 62.23" stroke="hsl(188.70000000000005, 94.5%, 55.6%)" stroke-width="1.5"></path><path d="M1299.79 102.98L1299.79 102.98" stroke="hsl(188.70000000000005, 94.5%, 55.6%)" stroke-width="1.5"></path><path d="M1299.79 102.98L1411.31 62.23" stroke="hsl(188.70000000000005, 94.5%, 55.6%)" stroke-width="1.5"></path><path d="M1299.79 102.98L1251.61 250.18" stroke="hsl(188.70000000000005, 94.5%, 55.6%)" stroke-width="1.5"></path><path d="M1299.79 102.98L1403.3 258.37" stroke="hsl(188.70000000000005, 94.5%, 55.6%)" stroke-width="1.5"></path><path d="M1299.79 102.98L1452.74 -86.2" stroke="hsl(188.70000000000005, 94.5%, 55.6%)" stroke-width="1.5"></path><path d="M1251.61 250.18L1251.61 250.18" stroke="hsl(188.70000000000005, 94.5%, 55.6%)" stroke-width="1.5"></path><path d="M1251.61 250.18L1261.67 354.88" stroke="hsl(188.70000000000005, 94.5%, 55.6%)" stroke-width="1.5"></path><path d="M1261.67 354.88L1261.67 354.88" stroke="hsl(188.70000000000005, 94.5%, 55.6%)" stroke-width="1.5"></path><path d="M1248.18 495.83L1248.18 495.83" stroke="hsl(188.70000000000005, 94.5%, 55.6%)" stroke-width="1.5"></path><path d="M1248.18 495.83L1261.67 354.88" stroke="hsl(188.70000000000005, 94.5%, 55.6%)" stroke-width="1.5"></path><path d="M1248.18 495.83L1142.4 386.81" stroke="hsl(188.70000000000005, 94.5%, 55.6%)" stroke-width="1.5"></path><path d="M1248.18 495.83L1415.38 537.23" stroke="hsl(188.70000000000005, 94.5%, 55.6%)" stroke-width="1.5"></path><path d="M1248.18 495.83L1111.18 655.12" stroke="hsl(188.70000000000005, 94.5%, 55.6%)" stroke-width="1.5"></path><path d="M1452.74 -86.2L1452.74 -86.2" stroke="hsl(188.70000000000005, 94.5%, 55.6%)" stroke-width="1.5"></path><path d="M1452.74 -86.2L1565.94 -44.23" stroke="hsl(188.70000000000005, 94.5%, 55.6%)" stroke-width="1.5"></path><path d="M1411.31 62.23L1411.31 62.23" stroke="hsl(188.70000000000005, 94.5%, 55.6%)" stroke-width="1.5"></path><path d="M1411.31 62.23L1549.44 41.07" stroke="hsl(188.70000000000005, 94.5%, 55.6%)" stroke-width="1.5"></path><path d="M1411.31 62.23L1452.74 -86.2" stroke="hsl(188.70000000000005, 94.5%, 55.6%)" stroke-width="1.5"></path><path d="M1411.31 62.23L1565.94 -44.23" stroke="hsl(188.70000000000005, 94.5%, 55.6%)" stroke-width="1.5"></path><path d="M1411.31 62.23L1403.3 258.37" stroke="hsl(188.70000000000005, 94.5%, 55.6%)" stroke-width="1.5"></path><path d="M1403.3 258.37L1403.3 258.37" stroke="hsl(188.70000000000005, 94.5%, 55.6%)" stroke-width="1.5"></path><path d="M1403.3 258.37L1445.07 374.37" stroke="hsl(188.70000000000005, 94.5%, 55.6%)" stroke-width="1.5"></path><path d="M1403.3 258.37L1251.61 250.18" stroke="hsl(188.70000000000005, 94.5%, 55.6%)" stroke-width="1.5"></path><path d="M1403.3 258.37L1571.35 233.97" stroke="hsl(188.70000000000005, 94.5%, 55.6%)" stroke-width="1.5"></path><path d="M1403.3 258.37L1261.67 354.88" stroke="hsl(188.70000000000005, 94.5%, 55.6%)" stroke-width="1.5"></path><path d="M1445.07 374.37L1445.07 374.37" stroke="hsl(188.70000000000005, 94.5%, 55.6%)" stroke-width="1.5"></path><path d="M1445.07 374.37L1415.38 537.23" stroke="hsl(188.70000000000005, 94.5%, 55.6%)" stroke-width="1.5"></path><path d="M1445.07 374.37L1261.67 354.88" stroke="hsl(188.70000000000005, 94.5%, 55.6%)" stroke-width="1.5"></path><path d="M1445.07 374.37L1571.35 233.97" stroke="hsl(188.70000000000005, 94.5%, 55.6%)" stroke-width="1.5"></path><path d="M1445.07 374.37L1552.66 553.49" stroke="hsl(188.70000000000005, 94.5%, 55.6%)" stroke-width="1.5"></path><path d="M1415.38 537.23L1415.38 537.23" stroke="hsl(188.70000000000005, 94.5%, 55.6%)" stroke-width="1.5"></path><path d="M1415.38 537.23L1440.76 668.01" stroke="hsl(188.70000000000005, 94.5%, 55.6%)" stroke-width="1.5"></path><path d="M1415.38 537.23L1552.66 553.49" stroke="hsl(188.70000000000005, 94.5%, 55.6%)" stroke-width="1.5"></path><path d="M1440.76 668.01L1440.76 668.01" stroke="hsl(188.70000000000005, 94.5%, 55.6%)" stroke-width="1.5"></path><path d="M1440.76 668.01L1554.83 648.8" stroke="hsl(188.70000000000005, 94.5%, 55.6%)" stroke-width="1.5"></path><path d="M1565.94 -44.23L1565.94 -44.23" stroke="hsl(188.70000000000005, 94.5%, 55.6%)" stroke-width="1.5"></path><path d="M1565.94 -44.23L1549.44 41.07" stroke="hsl(188.70000000000005, 94.5%, 55.6%)" stroke-width="1.5"></path><path d="M1549.44 41.07L1549.44 41.07" stroke="hsl(188.70000000000005, 94.5%, 55.6%)" stroke-width="1.5"></path><path d="M1549.44 41.07L1452.74 -86.2" stroke="hsl(188.70000000000005, 94.5%, 55.6%)" stroke-width="1.5"></path><path d="M1571.35 233.97L1571.35 233.97" stroke="hsl(188.70000000000005, 94.5%, 55.6%)" stroke-width="1.5"></path><path d="M1552.66 553.49L1552.66 553.49" stroke="hsl(188.70000000000005, 94.5%, 55.6%)" stroke-width="1.5"></path><path d="M1552.66 553.49L1554.83 648.8" stroke="hsl(188.70000000000005, 94.5%, 55.6%)" stroke-width="1.5"></path><path d="M1554.83 648.8L1554.83 648.8" stroke="hsl(188.70000000000005, 94.5%, 55.6%)" stroke-width="1.5"></path><circle r="25" cx="81.59" cy="547.58" fill="url(#SvgjsRadialGradient1013)"></circle><circle r="25" cx="385.46" cy="657.8" fill="url(#SvgjsRadialGradient1013)"></circle><circle r="25" cx="554.95" cy="397.55" fill="url(#SvgjsRadialGradient1013)"></circle><circle r="25" cx="517.13" cy="541.23" fill="url(#SvgjsRadialGradient1013)"></circle><circle r="25" cx="847.22" cy="350.36" fill="url(#SvgjsRadialGradient1013)"></circle><circle r="25" cx="984.07" cy="497.15" fill="url(#SvgjsRadialGradient1013)"></circle><circle r="25" cx="1601.29" cy="341.77" fill="url(#SvgjsRadialGradient1013)"></circle><circle r="5" cx="-74.16" cy="497.16" fill="#83dbea"></circle><circle r="5" cx="-52.92" cy="673.73" fill="#83dbea"></circle><circle r="5" cx="59.1" cy="688.61" fill="#83dbea"></circle><circle r="5" cx="206.15" cy="534.54" fill="#83dbea"></circle><circle r="5" cx="402.49" cy="407.08" fill="#83dbea"></circle><circle r="5" cx="388.56" cy="540.86" fill="#83dbea"></circle><circle r="5" cx="643.18" cy="372.35" fill="#83dbea"></circle><circle r="5" cx="692.38" cy="490.62" fill="#83dbea"></circle><circle r="5" cx="684.82" cy="664.67" fill="#83dbea"></circle><circle r="5" cx="808.66" cy="553.67" fill="#83dbea"></circle><circle r="5" cx="838.49" cy="690.33" fill="#83dbea"></circle><circle r="5" cx="951.51" cy="250.24" fill="#83dbea"></circle><circle r="5" cx="999.97" cy="360.54" fill="#83dbea"></circle><circle r="5" cx="1162.25" cy="255.32" fill="#83dbea"></circle><circle r="5" cx="1142.4" cy="386.81" fill="#83dbea"></circle><circle r="5" cx="1152.62" cy="504.23" fill="#83dbea"></circle><circle r="5" cx="1111.18" cy="655.12" fill="#83dbea"></circle><circle r="5" cx="1247.27" cy="-45.58" fill="#83dbea"></circle><circle r="5" cx="1299.79" cy="102.98" fill="#83dbea"></circle><circle r="5" cx="1251.61" cy="250.18" fill="#83dbea"></circle><circle r="5" cx="1261.67" cy="354.88" fill="#83dbea"></circle><circle r="5" cx="1248.18" cy="495.83" fill="#83dbea"></circle><circle r="5" cx="1452.74" cy="-86.2" fill="#83dbea"></circle><circle r="5" cx="1411.31" cy="62.23" fill="#83dbea"></circle><circle r="5" cx="1403.3" cy="258.37" fill="#83dbea"></circle><circle r="5" cx="1445.07" cy="374.37" fill="#83dbea"></circle><circle r="5" cx="1415.38" cy="537.23" fill="#83dbea"></circle><circle r="5" cx="1440.76" cy="668.01" fill="#83dbea"></circle><circle r="5" cx="1565.94" cy="-44.23" fill="#83dbea"></circle><circle r="5" cx="1549.44" cy="41.07" fill="#83dbea"></circle><circle r="5" cx="1571.35" cy="233.97" fill="#83dbea"></circle><circle r="5" cx="1552.66" cy="553.49" fill="#83dbea"></circle><circle r="5" cx="1554.83" cy="648.8" fill="#83dbea"></circle></g><defs><mask id="SvgjsMask1012"><rect width="1440" height="500" fill="#ffffff"></rect></mask><radialGradient id="SvgjsRadialGradient1013"><stop stop-color="#ffffff" offset="0.1"></stop><stop stop-color="rgba(6, 182, 212, 1)" offset="0.2"></stop><stop stop-color="rgba(6, 182, 212, 0)" offset="1"></stop></radialGradient></defs></svg>